<svg width="228" height="68" viewBox="0 0 228 68" fill="none" xmlns="http://www.w3.org/2000/svg" role="img" aria-label="Compass"><title>Compass</title><g transform="translate(12,12) scale(1.8333333333333333)"><circle cx="12" cy="12" r="10" fill="none" stroke="#10192b" stroke-width="1.6"/><path d="M12 12 L16 8 L13 13 L8 16 Z" fill="#10192b"/><circle cx="12" cy="12" r="1.4" fill="#f5f3ef"/></g><path d="M79.29 46.38Q74.94 46.38 72.35 43.91Q69.77 41.45 69.77 36.82L69.77 31.18Q69.77 26.55 72.35 24.09Q74.94 21.62 79.29 21.62Q83.64 21.62 86 24Q88.37 26.38 88.37 30.53L88.37 30.74L84.35 30.74L84.35 30.43Q84.35 28.19 83.11 26.74Q81.87 25.30 79.29 25.30Q76.77 25.30 75.33 26.84Q73.88 28.39 73.88 31.11L73.88 36.89Q73.88 39.58 75.33 41.14Q76.77 42.70 79.29 42.70Q81.87 42.70 83.11 41.26Q84.35 39.81 84.35 37.57L84.35 36.99L88.37 36.99L88.37 37.47Q88.37 41.62 86 44Q83.64 46.38 79.29 46.38M100.30 46.38Q97.78 46.38 95.80 45.34Q93.81 44.30 92.67 42.38Q91.53 40.46 91.53 37.77L91.53 37.23Q91.53 34.54 92.67 32.61Q93.81 30.67 95.80 29.65Q97.78 28.63 100.30 28.63Q102.82 28.63 104.79 29.65Q106.76 30.67 107.90 32.61Q109.04 34.54 109.04 37.23L109.04 37.77Q109.04 40.46 107.90 42.38Q106.76 44.30 104.79 45.34Q102.82 46.38 100.30 46.38M100.30 42.91Q102.44 42.91 103.80 41.53Q105.16 40.15 105.16 37.67L105.16 37.33Q105.16 34.85 103.80 33.47Q102.44 32.10 100.30 32.10Q98.16 32.10 96.80 33.47Q95.44 34.85 95.44 37.33L95.44 37.67Q95.44 40.15 96.80 41.53Q98.16 42.91 100.30 42.91M117.10 45.90L113.19 45.90L113.19 29.10L117.03 29.10L117.03 30.97L117.61 30.97Q118.05 30.12 119.08 29.46Q120.12 28.80 121.86 28.80Q123.69 28.80 124.81 29.55Q125.94 30.29 126.51 31.45L127.06 31.45Q127.64 30.29 128.72 29.55Q129.81 28.80 131.82 28.80Q133.38 28.80 134.66 29.48Q135.93 30.16 136.70 31.48Q137.46 32.81 137.46 34.78L137.46 45.90L133.55 45.90L133.55 35.05Q133.55 33.59 132.77 32.83Q131.99 32.06 130.59 32.06Q129.06 32.06 128.16 33.06Q127.26 34.07 127.26 35.94L127.26 45.90L123.39 45.90L123.39 35.05Q123.39 33.59 122.60 32.83Q121.82 32.06 120.43 32.06Q118.86 32.06 117.98 33.06Q117.10 34.07 117.10 35.94L117.10 45.90M146.17 52.70L142.26 52.70L142.26 29.10L146.10 29.10L146.10 31.31L146.68 31.31Q147.25 30.26 148.53 29.44Q149.80 28.63 152.18 28.63Q154.22 28.63 155.97 29.63Q157.73 30.63 158.78 32.57Q159.83 34.51 159.83 37.23L159.83 37.77Q159.83 40.49 158.78 42.43Q157.73 44.37 155.99 45.37Q154.26 46.38 152.18 46.38Q150.59 46.38 149.52 46Q148.44 45.63 147.78 45.02Q147.12 44.40 146.74 43.79L146.17 43.79L146.17 52.70M151.03 42.98Q153.17 42.98 154.55 41.60Q155.92 40.22 155.92 37.67L155.92 37.33Q155.92 34.75 154.53 33.39Q153.14 32.03 151.03 32.03Q148.92 32.03 147.51 33.39Q146.10 34.75 146.10 37.33L146.10 37.67Q146.10 40.22 147.51 41.60Q148.92 42.98 151.03 42.98M169.18 46.38Q167.42 46.38 165.99 45.75Q164.56 45.12 163.73 43.93Q162.89 42.74 162.89 41Q162.89 39.30 163.73 38.15Q164.56 36.99 166.02 36.40Q167.48 35.80 169.35 35.80L174.22 35.80L174.22 34.78Q174.22 33.46 173.40 32.62Q172.58 31.79 170.85 31.79Q169.15 31.79 168.28 32.59Q167.42 33.39 167.14 34.65L163.54 33.46Q163.95 32.13 164.85 31.04Q165.75 29.95 167.25 29.29Q168.74 28.63 170.92 28.63Q174.22 28.63 176.10 30.28Q177.99 31.93 177.99 35.05L177.99 41.65Q177.99 42.67 178.94 42.67L180.37 42.67L180.37 45.90L177.62 45.90Q176.39 45.90 175.61 45.29Q174.83 44.68 174.83 43.62L174.83 43.55L174.25 43.55Q174.05 44.03 173.54 44.71Q173.03 45.39 171.99 45.88Q170.95 46.38 169.18 46.38M169.83 43.18Q171.77 43.18 172.99 42.07Q174.22 40.97 174.22 39.10L174.22 38.76L169.59 38.76Q168.33 38.76 167.55 39.30Q166.77 39.85 166.77 40.90Q166.77 41.92 167.59 42.55Q168.40 43.18 169.83 43.18M190.40 46.38Q187.14 46.38 185.03 44.95Q182.92 43.52 182.48 40.77L186.08 39.85Q186.32 41.14 186.93 41.89Q187.54 42.64 188.44 42.94Q189.35 43.25 190.40 43.25Q192 43.25 192.80 42.67Q193.60 42.09 193.60 41.21Q193.60 40.29 192.83 39.85Q192.07 39.41 190.50 39.10L189.45 38.93Q187.71 38.59 186.29 37.99Q184.86 37.40 183.99 36.36Q183.12 35.33 183.12 33.73Q183.12 31.28 184.94 29.95Q186.76 28.63 189.72 28.63Q192.54 28.63 194.38 29.89Q196.21 31.14 196.76 33.25L193.15 34.34Q192.88 32.91 191.96 32.32Q191.05 31.72 189.72 31.72Q188.36 31.72 187.63 32.20Q186.90 32.67 186.90 33.56Q186.90 34.44 187.65 34.88Q188.39 35.33 189.65 35.53L190.71 35.73Q192.58 36.07 194.09 36.62Q195.60 37.16 196.49 38.18Q197.37 39.20 197.37 40.94Q197.37 43.55 195.48 44.96Q193.60 46.38 190.40 46.38M208.25 46.38Q204.99 46.38 202.88 44.95Q200.77 43.52 200.33 40.77L203.93 39.85Q204.17 41.14 204.78 41.89Q205.39 42.64 206.29 42.94Q207.20 43.25 208.25 43.25Q209.85 43.25 210.65 42.67Q211.45 42.09 211.45 41.21Q211.45 40.29 210.68 39.85Q209.92 39.41 208.35 39.10L207.30 38.93Q205.56 38.59 204.14 37.99Q202.71 37.40 201.84 36.36Q200.97 35.33 200.97 33.73Q200.97 31.28 202.79 29.95Q204.61 28.63 207.57 28.63Q210.39 28.63 212.23 29.89Q214.06 31.14 214.61 33.25L211 34.34Q210.73 32.91 209.81 32.32Q208.90 31.72 207.57 31.72Q206.21 31.72 205.48 32.20Q204.75 32.67 204.75 33.56Q204.75 34.44 205.50 34.88Q206.24 35.33 207.50 35.53L208.56 35.73Q210.43 36.07 211.94 36.62Q213.45 37.16 214.34 38.18Q215.22 39.20 215.22 40.94Q215.22 43.55 213.33 44.96Q211.45 46.38 208.25 46.38" fill="#10192b"/></svg>
