<?xml version="1.0" encoding="UTF-8" standalone="no"?>
<!-- Created with Inkscape (http://www.inkscape.org/) -->

<svg
   xmlns:dc="http://purl.org/dc/elements/1.1/"
   xmlns:cc="http://creativecommons.org/ns#"
   xmlns:rdf="http://www.w3.org/1999/02/22-rdf-syntax-ns#"
   xmlns:svg="http://www.w3.org/2000/svg"
   xmlns="http://www.w3.org/2000/svg"
   xmlns:sodipodi="http://sodipodi.sourceforge.net/DTD/sodipodi-0.dtd"
   xmlns:inkscape="http://www.inkscape.org/namespaces/inkscape"
   width="651.803349041"
   height="153.420506579"
   viewBox="0 0 2117.538 498.42291"
   id="svg3593"
   version="1.1"
   inkscape:version="0.91 r13725"
   sodipodi:docname="case western university.svg">
  <defs
     id="defs3595">
    <clipPath
       id="clip0">
      <rect
         id="rect3606"
         height="397"
         width="1693"
         x="0"
         y="0" />
    </clipPath>
  </defs>
  <sodipodi:namedview
     id="base"
     pagecolor="#ffffff"
     bordercolor="#666666"
     borderopacity="1.0"
     inkscape:pageopacity="0.0"
     inkscape:pageshadow="2"
     inkscape:zoom="0.42758503"
     inkscape:cx="833.75229"
     inkscape:cy="171.03383"
     inkscape:document-units="px"
     inkscape:current-layer="layer1"
     showgrid="false"
     inkscape:window-width="1280"
     inkscape:window-height="744"
     inkscape:window-x="-4"
     inkscape:window-y="-4"
     inkscape:window-maximized="1"
     fit-margin-top="0"
     fit-margin-left="0"
     fit-margin-right="0"
     fit-margin-bottom="0"
     units="px" />
  <metadata
     id="metadata3598">
    <rdf:RDF>
      <cc:Work
         rdf:about="">
        <dc:format>image/svg+xml</dc:format>
        <dc:type
           rdf:resource="http://purl.org/dc/dcmitype/StillImage" />
        <dc:title></dc:title>
      </cc:Work>
    </rdf:RDF>
  </metadata>
  <g
     inkscape:label="Layer 1"
     inkscape:groupmode="layer"
     id="layer1"
     transform="translate(648.11962,-244.94915)">
    <g
       id="g3991"
       transform="translate(0.50003538,-1.0000053)">
      <path
         id="path3609"
         d="m -647.89398,247.05957 417.21761,0 c -0.0453,138.82312 -0.0685,277.64675 0.0113,416.46986 -139.07481,0.20914 -278.15259,0.029 -417.22886,0.09 l 0,-416.55989 z m 0,0"
         style="opacity:1;fill:none;stroke:#073378;stroke-width:0.125;stroke-linecap:butt;stroke-linejoin:miter;stroke-miterlimit:10"
         inkscape:connector-curvature="0" />
      <path
         id="path3611"
         d="m -647.89398,247.05957 417.21761,0 c -0.0453,138.82312 -0.0685,277.64675 0.0113,416.46986 -139.07481,0.20914 -278.15259,0.029 -417.22886,0.09 l 0,-416.55989 z m 0,0"
         style="opacity:1;fill:#073378;fill-rule:nonzero;stroke:none"
         inkscape:connector-curvature="0" />
      <path
         id="path3613"
         d="m -230.67637,247.05957 1699.03227,0 0,436.27815 c -2.4355,-0.20204 -4.8405,-0.53184 -7.2388,-0.42748 -5.6489,8.48725 -9.2937,18.3413 -15.447,26.41753 -4.634,-8.83839 -9.1589,-17.74138 -13.5403,-26.70546 -3.0547,0.46046 -6.0784,0.97452 -9.0877,1.47232 5.038,11.0652 11.7687,21.28105 17.0322,32.22631 1.1639,8.50484 0.1113,17.20541 0.4984,25.78963 2.802,-0.0572 5.6361,-0.1005 8.4801,-0.16736 -0.068,-7.47744 -0.1857,-14.95535 -0.08,-22.42862 -0.1986,-3.51844 2.1609,-6.35353 3.8054,-9.24254 5.33,-8.41195 10.001,-17.22975 15.5777,-25.48936 l 0,58.52688 -2116.24988,0 0,-79.69011 c 139.07627,-0.061 278.15405,0.11912 417.22929,-0.09 -0.0802,-138.82314 -0.0569,-277.64677 -0.0117,-416.46989 z m 0,0"
         style="opacity:1;fill:none;stroke:#ffffff;stroke-width:0.125;stroke-linecap:butt;stroke-linejoin:miter;stroke-miterlimit:10"
         inkscape:connector-curvature="0" />
      <path
         id="path3617"
         d="m -619.44601,274.26736 c 119.171,0.003 238.34303,-0.0925 357.51348,0.0479 -0.0272,119.22628 -0.0805,238.4533 0.0266,357.67937 -119.17787,0.15149 -238.35713,0.0216 -357.53559,0.0651 -0.0226,-119.26423 -0.0139,-238.5282 -0.005,-357.79234 z m 0,0"
         style="opacity:1;fill:none;stroke:#ffffff;stroke-width:0.125;stroke-linecap:butt;stroke-linejoin:miter;stroke-miterlimit:10"
         inkscape:connector-curvature="0" />
      <path
         id="path3619"
         d="m -619.44601,274.26736 c 119.171,0.003 238.34303,-0.0925 357.51348,0.0479 -0.0272,119.22628 -0.0805,238.4533 0.0266,357.67937 -119.17787,0.15149 -238.35713,0.0216 -357.53559,0.0651 -0.0226,-119.26423 -0.0139,-238.5282 -0.005,-357.79234 z m 0,0"
         style="opacity:1;fill:#ffffff;fill-rule:nonzero;stroke:none"
         inkscape:connector-curvature="0" />
      <path
         id="path3621"
         d="m -594.79029,309.59735 c 0.12384,-2.56374 -0.38805,-5.25184 0.40566,-7.7325 35.08272,-0.23203 70.18213,-0.14527 105.26977,-0.0399 -13.78702,21.87658 -22.41302,46.53066 -29.06722,71.37986 -14.46633,4.24083 -29.08482,8.32971 -43.05888,14.13907 -11.57055,4.52626 -22.58177,10.3018 -33.57349,16.05443 0.0905,-31.26684 0.0452,-62.53421 0.0242,-93.80101 z m 0,0"
         style="opacity:1;fill:none;stroke:#073378;stroke-width:0.125;stroke-linecap:butt;stroke-linejoin:miter;stroke-miterlimit:10"
         inkscape:connector-curvature="0" />
      <path
         id="path3623"
         d="m -594.79029,309.59735 c 0.12384,-2.56374 -0.38805,-5.25184 0.40566,-7.7325 35.08272,-0.23203 70.18213,-0.14527 105.26977,-0.0399 -13.78702,21.87658 -22.41302,46.53066 -29.06722,71.37986 -14.46633,4.24083 -29.08482,8.32971 -43.05888,14.13907 -11.57055,4.52626 -22.58177,10.3018 -33.57349,16.05443 0.0905,-31.26684 0.0452,-62.53421 0.0242,-93.80101 z m 0,0"
         style="opacity:1;fill:#073378;fill-rule:nonzero;stroke:none"
         inkscape:connector-curvature="0" />
      <path
         id="path3625"
         d="m -486.04044,367.34575 c 6.86136,-23.02643 16.59937,-45.22896 29.40205,-65.58054 24.57941,-0.0466 49.15898,-0.0126 73.739,-0.0172 0.009,48.22197 0.01,96.44374 -6.4e-4,144.66584 9.26949,0.0366 18.5397,0.0299 27.8109,0.004 -0.0142,-48.19653 0.0511,-96.39306 -0.0331,-144.58922 21.77544,-0.19737 43.55401,-0.0284 65.33147,-0.0854 0.086,33.84114 -0.0571,67.68281 0.0725,101.52388 -11.67845,-6.25323 -23.53373,-12.24887 -35.95855,-16.89085 -0.0153,10.16122 -0.11,20.32428 0.0537,30.48539 12.48539,5.26849 24.26887,12.01496 35.76411,19.15503 0.28499,24.76445 -0.11588,49.5355 0.20314,74.29996 -68.03582,0.42352 -136.08672,0.0701 -204.12829,0.17664 -4.55933,-23.123 -6.8675,-46.71399 -6.30123,-70.28805 -9.6065,0.0196 -19.21548,-0.15554 -28.81891,0.0992 -0.15747,23.46013 1.28565,46.9868 5.45321,70.09982 -23.72817,0.27855 -47.46161,-0.0795 -71.18998,0.18044 -0.19016,-24.81481 -0.26766,-49.64413 0.0387,-74.45633 53.35375,-34.49072 118.90032,-47.49086 181.73765,-41.80672 -0.12749,-9.36645 0.12945,-18.73569 -0.1542,-28.09898 -24.28973,-2.46821 -48.82028,-2.10888 -73.02161,1.12297 z m 0,0"
         style="opacity:1;fill:none;stroke:#073378;stroke-width:0.125;stroke-linecap:butt;stroke-linejoin:miter;stroke-miterlimit:10"
         inkscape:connector-curvature="0" />
      <path
         id="path3627"
         d="m -486.04044,367.34575 c 6.86136,-23.02643 16.59937,-45.22896 29.40205,-65.58054 24.57941,-0.0466 49.15898,-0.0126 73.739,-0.0172 0.009,48.22197 0.01,96.44374 -6.4e-4,144.66584 9.26949,0.0366 18.5397,0.0299 27.8109,0.004 -0.0142,-48.19653 0.0511,-96.39306 -0.0331,-144.58922 21.77544,-0.19737 43.55401,-0.0284 65.33147,-0.0854 0.086,33.84114 -0.0571,67.68281 0.0725,101.52388 -11.67845,-6.25323 -23.53373,-12.24887 -35.95855,-16.89085 -0.0153,10.16122 -0.11,20.32428 0.0537,30.48539 12.48539,5.26849 24.26887,12.01496 35.76411,19.15503 0.28499,24.76445 -0.11588,49.5355 0.20314,74.29996 -68.03582,0.42352 -136.08672,0.0701 -204.12829,0.17664 -4.55933,-23.123 -6.8675,-46.71399 -6.30123,-70.28805 -9.6065,0.0196 -19.21548,-0.15554 -28.81891,0.0992 -0.15747,23.46013 1.28565,46.9868 5.45321,70.09982 -23.72817,0.27855 -47.46161,-0.0795 -71.18998,0.18044 -0.19016,-24.81481 -0.26766,-49.64413 0.0387,-74.45633 53.35375,-34.49072 118.90032,-47.49086 181.73765,-41.80672 -0.12749,-9.36645 0.12945,-18.73569 -0.1542,-28.09898 -24.28973,-2.46821 -48.82028,-2.10888 -73.02161,1.12297 z m 0,0"
         style="opacity:1;fill:#073378;fill-rule:nonzero;stroke:none"
         inkscape:connector-curvature="0" />
      <path
         id="path3629"
         d="m -41.701645,308.17981 c 36.29385,-7.81524 73.94354,-4.44387 109.96479,3.17257 7.70957,1.51817 15.18498,4.75941 23.19638,4.16331 1.08677,18.93625 2.86005,37.83014 5.17495,56.65505 0.31127,2.86885 0.92727,5.75099 0.64952,8.64858 -3.53282,3.8385 -9.94863,4.1062 -14.25225,1.49432 -1.45584,-1.82427 -1.5851,-4.32415 -2.29338,-6.47441 -4.53146,-17.98596 -15.87123,-34.59438 -32.32495,-43.59686 -19.32195,-10.69944 -42.28815,-12.57263 -63.92919,-10.7366 -28.05774,2.48257 -55.94791,14.363 -74.70005,35.81556 -18.152785,20.46063 -26.678535,47.77648 -28.599695,74.68348 -2.50235,33.12027 3.08365,67.85753 20.961395,96.31477 14.8915,24.16116 39.28586,42.15443 66.7601,49.27039 24.20399,6.20744 50.8439,6.80331 74.09331,-3.32654 21.56323,-9.3415 37.7271,-28.496 46.26474,-50.08985 1.16877,-3.82231 5.93816,-3.62637 9.14176,-3.31005 2.939015,0.43565 7.107985,2.46153 6.074855,6.12934 -2.13041,14.29731 -6.528305,28.1913 -11.958645,41.55865 -2.50031,5.62813 -4.77148,11.56736 -8.81685,16.2956 -3.78438,1.32359 -7.79678,1.88183 -11.55531,3.29172 -10.90655,4.08548 -22.42481,6.12908 -33.87706,7.99056 -31.05548,4.94352 -63.167,4.16746 -93.72442,-3.46264 -32.80647,-8.24298 -63.376425,-27.01968 -83.415815,-54.54819 -37.58051,-51.00923 -35.33451,-127.04705 4.53847,-176.14605 22.94961,-28.51856 57.140675,-46.43681 92.627345,-53.79271 z m 0,0"
         style="opacity:1;fill:none;stroke:#475157;stroke-width:0.125;stroke-linecap:butt;stroke-linejoin:miter;stroke-miterlimit:10"
         inkscape:connector-curvature="0" />
      <path
         id="path3631"
         d="m -41.701645,308.17981 c 36.29385,-7.81524 73.94354,-4.44387 109.96479,3.17257 7.70957,1.51817 15.18498,4.75941 23.19638,4.16331 1.08677,18.93625 2.86005,37.83014 5.17495,56.65505 0.31127,2.86885 0.92727,5.75099 0.64952,8.64858 -3.53282,3.8385 -9.94863,4.1062 -14.25225,1.49432 -1.45584,-1.82427 -1.5851,-4.32415 -2.29338,-6.47441 -4.53146,-17.98596 -15.87123,-34.59438 -32.32495,-43.59686 -19.32195,-10.69944 -42.28815,-12.57263 -63.92919,-10.7366 -28.05774,2.48257 -55.94791,14.363 -74.70005,35.81556 -18.152785,20.46063 -26.678535,47.77648 -28.599695,74.68348 -2.50235,33.12027 3.08365,67.85753 20.961395,96.31477 14.8915,24.16116 39.28586,42.15443 66.7601,49.27039 24.20399,6.20744 50.8439,6.80331 74.09331,-3.32654 21.56323,-9.3415 37.7271,-28.496 46.26474,-50.08985 1.16877,-3.82231 5.93816,-3.62637 9.14176,-3.31005 2.939015,0.43565 7.107985,2.46153 6.074855,6.12934 -2.13041,14.29731 -6.528305,28.1913 -11.958645,41.55865 -2.50031,5.62813 -4.77148,11.56736 -8.81685,16.2956 -3.78438,1.32359 -7.79678,1.88183 -11.55531,3.29172 -10.90655,4.08548 -22.42481,6.12908 -33.87706,7.99056 -31.05548,4.94352 -63.167,4.16746 -93.72442,-3.46264 -32.80647,-8.24298 -63.376425,-27.01968 -83.415815,-54.54819 -37.58051,-51.00923 -35.33451,-127.04705 4.53847,-176.14605 22.94961,-28.51856 57.140675,-46.43681 92.627345,-53.79271 z m 0,0"
         style="opacity:1;fill:#475157;fill-rule:nonzero;stroke:none"
         inkscape:connector-curvature="0" />
      <path
         id="path3633"
         d="m 398.96702,400.45043 c 18.25571,-2.74175 36.3084,1.88355 53.98536,5.86974 2.16193,3.25355 2.81161,7.24745 3.82203,10.96612 2.32035,10.92872 3.40185,22.22275 2.59612,33.37642 -2.50268,3.97895 -8.30342,4.4419 -12.26897,2.63915 -2.64853,-1.05623 -2.7509,-4.20543 -3.63086,-6.50352 -3.22038,-10.97147 -9.77859,-21.71771 -20.22773,-27.06006 -9.818,-4.98159 -21.73305,-4.61585 -31.9119,-0.94817 -9.54527,3.42023 -15.98666,13.20335 -15.83985,23.27446 -0.42556,7.987 3.78706,15.50756 9.69629,20.62037 9.02017,7.85975 20.14307,12.5838 30.60786,18.14618 8.83434,4.81811 18.40356,8.60941 26.0205,15.36998 11.80789,9.94473 20.1124,24.27739 21.67189,39.74406 1.8945,14.95241 -2.37563,30.99043 -12.97586,41.96442 -11.13167,11.94903 -27.3373,17.73942 -43.22903,19.6694 -21.07778,2.37691 -43.48805,-0.21054 -61.92421,-11.30671 -3.14645,-1.62151 -4.24317,-5.21019 -5.54445,-8.22876 -4.5644,-12.2179 -5.99197,-25.39509 -5.98974,-38.36273 1.56074,-7.0853 13.70289,-7.07347 15.31385,-0.0113 3.69044,12.36812 11.17117,23.55263 21.01294,31.88135 7.80565,6.61255 17.87489,10.88044 28.2189,10.5147 9.12254,-0.3196 18.98044,-2.68683 25.26365,-9.79015 6.99266,-7.53176 7.89744,-18.89065 5.35552,-28.45142 -2.76346,-10.44918 -11.19803,-18.19423 -20.05698,-23.74994 -15.12148,-9.06281 -32.32134,-14.90077 -45.58914,-26.85789 -9.35877,-8.18937 -16.66842,-19.2791 -18.46825,-31.75601 -2.22736,-15.11799 1.90496,-31.60309 12.78444,-42.65845 10.70416,-11.28301 26.18112,-16.56596 41.30762,-18.35161 z m 0,0"
         style="opacity:1;fill:none;stroke:#475157;stroke-width:0.125;stroke-linecap:butt;stroke-linejoin:miter;stroke-miterlimit:10"
         inkscape:connector-curvature="0" />
      <path
         id="path3635"
         d="m 398.96702,400.45043 c 18.25571,-2.74175 36.3084,1.88355 53.98536,5.86974 2.16193,3.25355 2.81161,7.24745 3.82203,10.96612 2.32035,10.92872 3.40185,22.22275 2.59612,33.37642 -2.50268,3.97895 -8.30342,4.4419 -12.26897,2.63915 -2.64853,-1.05623 -2.7509,-4.20543 -3.63086,-6.50352 -3.22038,-10.97147 -9.77859,-21.71771 -20.22773,-27.06006 -9.818,-4.98159 -21.73305,-4.61585 -31.9119,-0.94817 -9.54527,3.42023 -15.98666,13.20335 -15.83985,23.27446 -0.42556,7.987 3.78706,15.50756 9.69629,20.62037 9.02017,7.85975 20.14307,12.5838 30.60786,18.14618 8.83434,4.81811 18.40356,8.60941 26.0205,15.36998 11.80789,9.94473 20.1124,24.27739 21.67189,39.74406 1.8945,14.95241 -2.37563,30.99043 -12.97586,41.96442 -11.13167,11.94903 -27.3373,17.73942 -43.22903,19.6694 -21.07778,2.37691 -43.48805,-0.21054 -61.92421,-11.30671 -3.14645,-1.62151 -4.24317,-5.21019 -5.54445,-8.22876 -4.5644,-12.2179 -5.99197,-25.39509 -5.98974,-38.36273 1.56074,-7.0853 13.70289,-7.07347 15.31385,-0.0113 3.69044,12.36812 11.17117,23.55263 21.01294,31.88135 7.80565,6.61255 17.87489,10.88044 28.2189,10.5147 9.12254,-0.3196 18.98044,-2.68683 25.26365,-9.79015 6.99266,-7.53176 7.89744,-18.89065 5.35552,-28.45142 -2.76346,-10.44918 -11.19803,-18.19423 -20.05698,-23.74994 -15.12148,-9.06281 -32.32134,-14.90077 -45.58914,-26.85789 -9.35877,-8.18937 -16.66842,-19.2791 -18.46825,-31.75601 -2.22736,-15.11799 1.90496,-31.60309 12.78444,-42.65845 10.70416,-11.28301 26.18112,-16.56596 41.30762,-18.35161 z m 0,0"
         style="opacity:1;fill:#475157;fill-rule:nonzero;stroke:none"
         inkscape:connector-curvature="0" />
      <path
         id="path3637"
         d="m 218.92924,401.36207 c 1.52626,-1.32635 3.88825,-0.86511 5.77236,-0.75931 3.57699,0.60047 4.28961,4.64296 5.39475,7.46232 16.91178,50.41503 36.52899,99.85154 55.02873,149.69211 2.34367,5.87262 4.71765,12.43264 10.34675,15.96572 5.66297,3.66244 12.59738,3.88567 18.9243,5.64219 6.43357,2.88357 4.06602,15.49554 -3.54787,14.27484 -23.30667,-1.62988 -46.70424,-1.50645 -70.0116,0.004 -6.95737,0.963 -9.13396,-9.68747 -4.48132,-13.56742 5.32905,-3.1065 13.35747,-0.44836 17.58006,-5.42545 -0.48021,-4.24309 -2.2776,-8.16851 -3.71841,-12.1383 -3.771,-9.99111 -7.3457,-20.05514 -11.1286,-30.03834 -0.86395,-2.54709 -2.80899,-5.23236 -5.80295,-5.03969 -16.2505,-0.18056 -32.50909,-0.006 -48.75977,-0.0818 -3.32225,-0.45602 -6.43295,1.56494 -7.33224,4.7879 -4.24523,11.58797 -8.51536,23.18088 -12.4712,34.87208 -0.59996,2.63452 -1.98561,5.53805 -0.71915,8.17862 5.45537,2.989 12.08671,2.20808 17.76266,4.56292 4.15805,3.46445 3.52686,12.1968 -2.08619,13.82277 -7.9359,0.0406 -15.84618,-1.03659 -23.78822,-0.91741 -13.73315,-0.74651 -27.4627,1.0906 -41.17571,0.82502 -4.5965,-2.78156 -4.99993,-10.525 -0.88966,-13.86073 7.31227,-2.6145 15.80416,-2.4127 22.15662,-7.42263 5.7218,-4.73952 8.5932,-11.85669 11.66386,-18.41526 11.84334,-28.18768 23.55035,-56.43281 35.3614,-84.63441 6.51205,-16.27437 14.54644,-32.24995 17.28841,-49.72667 0.0631,-2.30806 2.66719,-2.76405 4.21014,-3.84698 6.16023,-3.14803 10.79418,-8.44182 14.42285,-14.21578 z m 0,0"
         style="opacity:1;fill:none;stroke:#475157;stroke-width:0.125;stroke-linecap:butt;stroke-linejoin:miter;stroke-miterlimit:10"
         inkscape:connector-curvature="0" />
      <path
         inkscape:connector-curvature="0"
         id="path3639"
         d="m 221.68081,400.44542 c -1.0168,0.0373 -1.98883,0.25284 -2.75196,0.91601 -3.62867,5.77396 -8.26164,11.06877 -14.42187,14.2168 -1.54295,1.08293 -4.14784,1.5396 -4.21094,3.84766 -2.74197,17.47672 -10.77701,33.45219 -17.28906,49.72656 -11.81105,28.2016 -23.51799,56.44513 -35.36133,84.63281 -3.07066,6.55857 -5.94031,13.6765 -11.66211,18.41602 -6.35246,5.00993 -14.84594,4.80737 -22.15821,7.42187 -4.11027,3.33573 -3.70587,11.07977 0.89063,13.86133 13.71301,0.26558 27.44263,-1.57073 41.17578,-0.82422 7.94204,-0.11918 15.85121,0.95662 23.78711,0.91602 5.61305,-1.62597 6.24399,-10.35782 2.08594,-13.82227 -5.67595,-2.35484 -12.30635,-1.5735 -17.76172,-4.5625 -1.26646,-2.64057 0.11879,-5.54321 0.71875,-8.17773 3.95584,-11.6912 8.22548,-23.28508 12.47071,-34.87305 0.89929,-3.22296 4.01173,-5.24313 7.33398,-4.78711 16.25068,0.0758 32.50926,-0.0985 48.75977,0.082 2.99396,-0.19267 4.93878,2.49197 5.80273,5.03906 3.7829,9.9832 7.35791,20.046 11.12891,30.03711 1.44081,3.96979 3.23658,7.89558 3.71679,12.13867 -4.22258,4.97709 -12.25102,2.31929 -17.58007,5.42579 -4.65264,3.87995 -2.47496,14.53136 4.48242,13.56836 23.30735,-1.51045 46.70504,-1.63379 70.01172,-0.004 7.61388,1.2207 9.98045,-11.39182 3.54687,-14.27539 -6.32691,-1.75652 -13.26085,-1.98014 -18.92383,-5.64258 -5.6291,-3.53308 -8.00398,-10.09222 -10.34765,-15.96484 -18.49974,-49.84057 -38.11557,-99.27833 -55.02735,-149.69336 -1.10513,-2.81936 -1.81754,-6.86047 -5.39453,-7.46094 -0.94205,-0.0529 -2.00469,-0.19546 -3.02148,-0.1582 z m -12.82422,51.07226 c 1.01552,1.84599 2.0149,3.71832 2.75781,5.70508 5.34074,14.78066 10.70768,29.55357 16.14453,44.30078 0.92513,2.4271 1.38149,4.99377 1.625,7.57813 -14.45988,0.81237 -29.01347,0.6098 -43.48242,0.11914 0.77832,-3.46658 1.91322,-6.84127 3.3125,-10.10547 6.58472,-15.85028 12.62393,-31.92957 19.64258,-47.59766 z"
         style="opacity:1;fill:#475157;fill-rule:nonzero;stroke:none" />
      <path
         id="path3641"
         d="m 602.12927,405.50392 c 15.17587,-0.19846 30.474,0.68045 45.5435,-1.53879 1.43538,13.97369 2.98663,27.93609 4.52163,41.90015 0.12375,2.14974 0.80475,4.92605 -1.30775,6.38315 -3.67725,2.81503 -9.9145,2.90579 -13.01788,-0.72221 -2.48625,-7.56286 -3.75912,-16.00348 -9.209,-22.16701 -6.39112,-5.96358 -15.70812,-6.73634 -24.00962,-7.25815 -11.28539,-0.0667 -22.57314,-0.0934 -33.85148,0.002 -2.9409,-0.28557 -6.30015,1.50543 -6.06991,4.82418 -0.25393,18.79418 -0.12375,37.61139 -0.067,56.41003 -0.55453,3.74765 3.83234,3.04315 6.22762,3.134 9.54269,-0.1972 19.10727,0.29977 28.64393,-0.32023 4.86946,-0.40378 10.72359,-1.15642 13.49846,-5.77928 3.08163,-5.51652 3.14413,-12.14087 5.83588,-17.80764 3.9105,-3.45623 11.10037,-2.70605 13.73524,2.00735 -0.88774,19.60676 -1.30487,39.27887 0.025,58.88565 0.744,6.74794 -9.83012,8.62801 -13.71674,4.40575 -2.95913,-5.89161 -2.76488,-13.0275 -6.47738,-18.60945 -2.36638,-3.16114 -6.5115,-4.09529 -10.2005,-4.60504 -9.60096,-0.99255 -19.26404,-0.65086 -28.89189,-0.75329 -2.7862,0.0232 -5.65785,-0.0485 -8.27674,0.97693 -1.06007,7.72834 -0.18295,15.59766 -0.4597,23.38474 0.33744,13.00433 -1.17128,26.32798 2.28081,39.03978 0.90774,4.69998 5.74371,6.73538 9.99216,7.39399 10.37842,1.72779 20.95135,1.41468 31.44011,1.43814 10.44138,-0.17189 21.7995,-0.86628 30.4185,-7.48489 8.74513,-6.58211 12.768,-17.1319 16.97613,-26.81685 3.226,-3.39506 9.48337,-3.08946 12.9105,-0.08 2.34562,1.9529 1.297,5.18414 1.03937,7.7582 -2.5385,15.10311 -5.88187,30.30221 -12.61387,44.15475 -51.64263,-0.81752 -103.3232,-2.44672 -154.94983,-8.1e-4 -7.50702,1.19056 -9.2288,-10.73146 -3.92071,-14.23261 7.73092,-1.8363 16.05965,-0.96089 23.5356,-3.97235 3.63115,-1.46309 5.11731,-5.5063 5.7022,-9.08455 1.26732,-8.48732 0.88227,-17.09692 0.9389,-25.64615 -0.0374,-32.90859 0.077,-65.81844 -0.0557,-98.72552 -0.50448,-5.79958 0.21532,-12.58451 -3.89886,-17.27521 -4.37222,-3.91357 -10.69394,-3.80924 -16.07938,-5.3089 -8.35452,-0.41545 -6.97512,-16.13671 1.24393,-15.0142 30.82296,1.77943 61.70642,0.89401 92.56402,1.10344 z m 0,0"
         style="opacity:1;fill:none;stroke:#475157;stroke-width:0.125;stroke-linecap:butt;stroke-linejoin:miter;stroke-miterlimit:10"
         inkscape:connector-curvature="0" />
      <path
         id="path3643"
         d="m 602.12927,405.50392 c 15.17587,-0.19846 30.474,0.68045 45.5435,-1.53879 1.43538,13.97369 2.98663,27.93609 4.52163,41.90015 0.12375,2.14974 0.80475,4.92605 -1.30775,6.38315 -3.67725,2.81503 -9.9145,2.90579 -13.01788,-0.72221 -2.48625,-7.56286 -3.75912,-16.00348 -9.209,-22.16701 -6.39112,-5.96358 -15.70812,-6.73634 -24.00962,-7.25815 -11.28539,-0.0667 -22.57314,-0.0934 -33.85148,0.002 -2.9409,-0.28557 -6.30015,1.50543 -6.06991,4.82418 -0.25393,18.79418 -0.12375,37.61139 -0.067,56.41003 -0.55453,3.74765 3.83234,3.04315 6.22762,3.134 9.54269,-0.1972 19.10727,0.29977 28.64393,-0.32023 4.86946,-0.40378 10.72359,-1.15642 13.49846,-5.77928 3.08163,-5.51652 3.14413,-12.14087 5.83588,-17.80764 3.9105,-3.45623 11.10037,-2.70605 13.73524,2.00735 -0.88774,19.60676 -1.30487,39.27887 0.025,58.88565 0.744,6.74794 -9.83012,8.62801 -13.71674,4.40575 -2.95913,-5.89161 -2.76488,-13.0275 -6.47738,-18.60945 -2.36638,-3.16114 -6.5115,-4.09529 -10.2005,-4.60504 -9.60096,-0.99255 -19.26404,-0.65086 -28.89189,-0.75329 -2.7862,0.0232 -5.65785,-0.0485 -8.27674,0.97693 -1.06007,7.72834 -0.18295,15.59766 -0.4597,23.38474 0.33744,13.00433 -1.17128,26.32798 2.28081,39.03978 0.90774,4.69998 5.74371,6.73538 9.99216,7.39399 10.37842,1.72779 20.95135,1.41468 31.44011,1.43814 10.44138,-0.17189 21.7995,-0.86628 30.4185,-7.48489 8.74513,-6.58211 12.768,-17.1319 16.97613,-26.81685 3.226,-3.39506 9.48337,-3.08946 12.9105,-0.08 2.34562,1.9529 1.297,5.18414 1.03937,7.7582 -2.5385,15.10311 -5.88187,30.30221 -12.61387,44.15475 -51.64263,-0.81752 -103.3232,-2.44672 -154.94983,-8.1e-4 -7.50702,1.19056 -9.2288,-10.73146 -3.92071,-14.23261 7.73092,-1.8363 16.05965,-0.96089 23.5356,-3.97235 3.63115,-1.46309 5.11731,-5.5063 5.7022,-9.08455 1.26732,-8.48732 0.88227,-17.09692 0.9389,-25.64615 -0.0374,-32.90859 0.077,-65.81844 -0.0557,-98.72552 -0.50448,-5.79958 0.21532,-12.58451 -3.89886,-17.27521 -4.37222,-3.91357 -10.69394,-3.80924 -16.07938,-5.3089 -8.35452,-0.41545 -6.97512,-16.13671 1.24393,-15.0142 30.82296,1.77943 61.70642,0.89401 92.56402,1.10344 z m 0,0"
         style="opacity:1;fill:#475157;fill-rule:nonzero;stroke:none"
         inkscape:connector-curvature="0" />
      <path
         id="path3645"
         d="m 208.85662,451.51769 c 1.01552,1.84599 2.0148,3.71798 2.75771,5.70474 5.34074,14.78066 10.7075,29.55333 16.14435,44.30054 0.92512,2.4271 1.38231,4.99474 1.62582,7.5791 -14.45988,0.81237 -29.01309,0.60966 -43.48204,0.119 0.77832,-3.46658 1.9113,-6.84116 3.31058,-10.10536 6.58472,-15.85028 12.62493,-31.92995 19.64358,-47.59804 z m 0,0"
         style="opacity:1;fill:none;stroke:#ffffff;stroke-width:0.125;stroke-linecap:butt;stroke-linejoin:miter;stroke-miterlimit:10"
         inkscape:connector-curvature="0" />
      <path
         id="path3649"
         d="m -594.87604,538.79127 c 25.85482,-0.35745 51.72386,-0.14809 77.58327,-0.10425 6.35891,23.84507 15.36218,47.21672 28.72233,68.05985 -35.36291,0.0564 -70.72683,-0.0969 -106.08872,0.077 -0.32739,-22.67524 0.10029,-45.35771 -0.21688,-68.0325 z m 0,0"
         style="opacity:1;fill:none;stroke:#073378;stroke-width:0.125;stroke-linecap:butt;stroke-linejoin:miter;stroke-miterlimit:10"
         inkscape:connector-curvature="0" />
      <path
         id="path3651"
         d="m -594.87604,538.79127 c 25.85482,-0.35745 51.72386,-0.14809 77.58327,-0.10425 6.35891,23.84507 15.36218,47.21672 28.72233,68.05985 -35.36291,0.0564 -70.72683,-0.0969 -106.08872,0.077 -0.32739,-22.67524 0.10029,-45.35771 -0.21688,-68.0325 z m 0,0"
         style="opacity:1;fill:#073378;fill-rule:nonzero;stroke:none"
         inkscape:connector-curvature="0" />
      <path
         id="path3653"
         d="m -486.81042,538.59779 c 34.62565,0.0275 69.25156,0.0496 103.87745,-0.0112 0.0663,22.72998 0.0604,45.46101 0.003,68.19182 -24.3813,-0.2302 -48.79816,0.31469 -73.15648,-0.26678 -13.82133,-20.76933 -23.69584,-44.02722 -30.72387,-67.91418 z m 0,0"
         style="opacity:1;fill:none;stroke:#073378;stroke-width:0.125;stroke-linecap:butt;stroke-linejoin:miter;stroke-miterlimit:10"
         inkscape:connector-curvature="0" />
      <path
         id="path3655"
         d="m -486.81042,538.59779 c 34.62565,0.0275 69.25156,0.0496 103.87745,-0.0112 0.0663,22.72998 0.0604,45.46101 0.003,68.19182 -24.3813,-0.2302 -48.79816,0.31469 -73.15648,-0.26678 -13.82133,-20.76933 -23.69584,-44.02722 -30.72387,-67.91418 z m 0,0"
         style="opacity:1;fill:#073378;fill-rule:nonzero;stroke:none"
         inkscape:connector-curvature="0" />
      <path
         id="path3657"
         d="m -355.08072,538.61856 c 21.80515,0.1155 43.61863,-0.23247 65.41928,0.17522 -0.34037,22.67901 0.15363,45.3681 -0.25034,68.046 -21.72106,-0.20525 -43.44461,-0.0369 -65.16611,-0.0856 -0.0131,-22.71233 -0.007,-45.424 -0.002,-68.13555 z m 0,0"
         style="opacity:1;fill:none;stroke:#073378;stroke-width:0.125;stroke-linecap:butt;stroke-linejoin:miter;stroke-miterlimit:10"
         inkscape:connector-curvature="0" />
      <path
         id="path3659"
         d="m -355.08072,538.61856 c 21.80515,0.1155 43.61863,-0.23247 65.41928,0.17522 -0.34037,22.67901 0.15363,45.3681 -0.25034,68.046 -21.72106,-0.20525 -43.44461,-0.0369 -65.16611,-0.0856 -0.0131,-22.71233 -0.007,-45.424 -0.002,-68.13555 z m 0,0"
         style="opacity:1;fill:#073378;fill-rule:nonzero;stroke:none"
         inkscape:connector-curvature="0" />
      <path
         id="path3661"
         d="m -146.99329,694.32258 c 10.22041,-13.13154 31.18434,-15.96702 44.56756,-6.10351 -1.06859,1.78115 -2.15255,3.55367 -3.21594,5.34036 -8.16332,-5.15299 -19.06976,-7.11717 -27.68979,-1.89611 -14.5617,8.73211 -14.136,33.14556 0.20763,41.91569 8.04566,5.17228 18.71181,3.98486 26.62454,-0.86097 1.20223,1.61984 2.38787,3.2393 3.6031,4.87282 -7.94535,6.1406 -18.26077,4.27656 -27.56253,4.37612 -6.80902,-0.86511 -12.88469,-5.15687 -16.99779,-10.51912 -7.80867,-10.71443 -7.88862,-26.68471 0.46322,-37.12528 z m 0,0"
         style="opacity:1;fill:none;stroke:#475157;stroke-width:0.125;stroke-linecap:butt;stroke-linejoin:miter;stroke-miterlimit:10"
         inkscape:connector-curvature="0" />
      <path
         id="path3663"
         d="m -146.99329,694.32258 c 10.22041,-13.13154 31.18434,-15.96702 44.56756,-6.10351 -1.06859,1.78115 -2.15255,3.55367 -3.21594,5.34036 -8.16332,-5.15299 -19.06976,-7.11717 -27.68979,-1.89611 -14.5617,8.73211 -14.136,33.14556 0.20763,41.91569 8.04566,5.17228 18.71181,3.98486 26.62454,-0.86097 1.20223,1.61984 2.38787,3.2393 3.6031,4.87282 -7.94535,6.1406 -18.26077,4.27656 -27.56253,4.37612 -6.80902,-0.86511 -12.88469,-5.15687 -16.99779,-10.51912 -7.80867,-10.71443 -7.88862,-26.68471 0.46322,-37.12528 z m 0,0"
         style="opacity:1;fill:#475157;fill-rule:nonzero;stroke:none"
         inkscape:connector-curvature="0" />
      <path
         id="path3665"
         d="m -16.958065,684.18182 c 7.5947,-3.4807 17.30239,-1.98414 23.17781,4.07722 -1.34917,1.49667 -2.69522,2.99495 -4.02793,4.50344 -4.15039,-2.65394 -9.16353,-5.58757 -14.20963,-3.56061 -4.64981,1.45946 -6.60994,7.82827 -3.32251,11.53981 6.42702,7.72261 17.57992,11.28303 21.22461,21.34019 3.35632,8.06447 -1.9815,17.79549 -10.3334,19.79591 -4.44381,0.33224 -8.91114,0.16459 -13.35666,0.122 -4.01444,-0.11037 -7.26414,-2.7927 -10.49859,-4.83951 1.42048,-1.57575 2.13644,-4.2803 4.27105,-4.93906 3.57325,1.79781 6.90866,4.47712 11.08323,4.66015 4.75247,0.74468 10.33437,-2.05834 11.13386,-7.1161 1.46966,-6.6018 -4.441,-11.36594 -9.15281,-14.77954 -5.86449,-4.2884 -13.57602,-8.53483 -14.35555,-16.5855 -1.05374,-6.06075 2.9257,-11.8669 8.36652,-14.21835 z m 0,0"
         style="opacity:1;fill:none;stroke:#475157;stroke-width:0.125;stroke-linecap:butt;stroke-linejoin:miter;stroke-miterlimit:10"
         inkscape:connector-curvature="0" />
      <path
         id="path3667"
         d="m -16.958065,684.18182 c 7.5947,-3.4807 17.30239,-1.98414 23.17781,4.07722 -1.34917,1.49667 -2.69522,2.99495 -4.02793,4.50344 -4.15039,-2.65394 -9.16353,-5.58757 -14.20963,-3.56061 -4.64981,1.45946 -6.60994,7.82827 -3.32251,11.53981 6.42702,7.72261 17.57992,11.28303 21.22461,21.34019 3.35632,8.06447 -1.9815,17.79549 -10.3334,19.79591 -4.44381,0.33224 -8.91114,0.16459 -13.35666,0.122 -4.01444,-0.11037 -7.26414,-2.7927 -10.49859,-4.83951 1.42048,-1.57575 2.13644,-4.2803 4.27105,-4.93906 3.57325,1.79781 6.90866,4.47712 11.08323,4.66015 4.75247,0.74468 10.33437,-2.05834 11.13386,-7.1161 1.46966,-6.6018 -4.441,-11.36594 -9.15281,-14.77954 -5.86449,-4.2884 -13.57602,-8.53483 -14.35555,-16.5855 -1.05374,-6.06075 2.9257,-11.8669 8.36652,-14.21835 z m 0,0"
         style="opacity:1;fill:#475157;fill-rule:nonzero;stroke:none"
         inkscape:connector-curvature="0" />
      <path
         id="path3669"
         d="m 248.13802,686.85893 c 7.67311,-6.73185 20.44031,-5.7463 27.49146,1.46138 -1.46402,1.44487 -2.91155,2.89616 -4.37043,4.336 -3.95834,-2.60514 -8.72041,-5.23553 -13.58689,-3.58987 -4.70317,1.20892 -7.05707,7.48571 -3.9722,11.34583 6.41857,8.07913 18.08958,11.66388 21.55819,22.1147 3.34169,8.43811 -3.04709,18.73357 -12.02181,19.47617 -7.09183,-0.0808 -15.31791,1.40433 -20.93144,-4.06045 -2.52896,-1.70188 1.45825,-4.2363 2.50849,-5.85146 3.6555,1.60501 6.87492,4.45755 11.01517,4.78648 4.09534,0.50935 9.1154,-0.86102 10.89594,-4.96388 2.04475,-4.03075 0.49085,-8.87926 -2.51635,-11.95505 -5.1433,-5.39671 -12.35152,-8.37368 -17.15247,-14.14282 -4.49679,-5.33129 -4.33315,-14.30115 1.08234,-18.95703 z m 0,0"
         style="opacity:1;fill:none;stroke:#475157;stroke-width:0.125;stroke-linecap:butt;stroke-linejoin:miter;stroke-miterlimit:10"
         inkscape:connector-curvature="0" />
      <path
         id="path3671"
         d="m 248.13802,686.85893 c 7.67311,-6.73185 20.44031,-5.7463 27.49146,1.46138 -1.46402,1.44487 -2.91155,2.89616 -4.37043,4.336 -3.95834,-2.60514 -8.72041,-5.23553 -13.58689,-3.58987 -4.70317,1.20892 -7.05707,7.48571 -3.9722,11.34583 6.41857,8.07913 18.08958,11.66388 21.55819,22.1147 3.34169,8.43811 -3.04709,18.73357 -12.02181,19.47617 -7.09183,-0.0808 -15.31791,1.40433 -20.93144,-4.06045 -2.52896,-1.70188 1.45825,-4.2363 2.50849,-5.85146 3.6555,1.60501 6.87492,4.45755 11.01517,4.78648 4.09534,0.50935 9.1154,-0.86102 10.89594,-4.96388 2.04475,-4.03075 0.49085,-8.87926 -2.51635,-11.95505 -5.1433,-5.39671 -12.35152,-8.37368 -17.15247,-14.14282 -4.49679,-5.33129 -4.33315,-14.30115 1.08234,-18.95703 z m 0,0"
         style="opacity:1;fill:#475157;fill-rule:nonzero;stroke:none"
         inkscape:connector-curvature="0" />
      <path
         id="path3673"
         d="m 669.34765,686.89727 c 7.64949,-6.76727 20.41987,-5.79588 27.49374,1.38601 -1.45287,1.46378 -2.889,2.92823 -4.33637,4.37903 -3.96638,-2.6283 -8.74963,-5.25255 -13.63013,-3.58492 -5.04562,1.31109 -7.10937,8.2826 -3.40162,12.03159 6.71475,7.69288 18.28962,11.55583 21.25663,22.19518 2.62837,7.95495 -2.91288,16.83097 -10.91801,18.59288 -8.05337,0.19638 -17.68612,1.7206 -23.54225,-5.25005 1.25888,-1.58598 2.52375,-3.17504 3.79525,-4.76307 4.8715,3.20907 10.72263,6.60486 16.7475,4.45467 5.62425,-1.4861 7.73013,-8.86499 4.6925,-13.54816 -4.92662,-7.98702 -15.10325,-10.64135 -20.26987,-18.44935 -3.31438,-5.3574 -2.8465,-13.2194 2.11262,-17.44381 z m 0,0"
         style="opacity:1;fill:none;stroke:#475157;stroke-width:0.125;stroke-linecap:butt;stroke-linejoin:miter;stroke-miterlimit:10"
         inkscape:connector-curvature="0" />
      <path
         id="path3675"
         d="m 669.34765,686.89727 c 7.64949,-6.76727 20.41987,-5.79588 27.49374,1.38601 -1.45287,1.46378 -2.889,2.92823 -4.33637,4.37903 -3.96638,-2.6283 -8.74963,-5.25255 -13.63013,-3.58492 -5.04562,1.31109 -7.10937,8.2826 -3.40162,12.03159 6.71475,7.69288 18.28962,11.55583 21.25663,22.19518 2.62837,7.95495 -2.91288,16.83097 -10.91801,18.59288 -8.05337,0.19638 -17.68612,1.7206 -23.54225,-5.25005 1.25888,-1.58598 2.52375,-3.17504 3.79525,-4.76307 4.8715,3.20907 10.72263,6.60486 16.7475,4.45467 5.62425,-1.4861 7.73013,-8.86499 4.6925,-13.54816 -4.92662,-7.98702 -15.10325,-10.64135 -20.26987,-18.44935 -3.31438,-5.3574 -2.8465,-13.2194 2.11262,-17.44381 z m 0,0"
         style="opacity:1;fill:#475157;fill-rule:nonzero;stroke:none"
         inkscape:connector-curvature="0" />
      <path
         id="path3677"
         d="m 1296.6464,687.94016 c 7.1737,-7.67615 21.1201,-7.43978 28.122,0.32973 -1.1565,1.57958 -2.4743,3.0225 -3.747,4.4801 -4.1848,-2.60687 -9.2364,-5.63047 -14.2705,-3.50311 -4.0033,1.2451 -6.2723,6.27525 -4.2218,10.0151 2.479,4.46461 7.1534,7.02171 11.0556,10.10564 5.4512,4.00304 11.1692,9.18453 11.8843,16.33895 0.8735,5.58025 -2.0419,11.2253 -6.7551,14.17736 -4.3907,3.34005 -10.1329,1.83384 -15.1959,2.1749 -4.7621,0.43979 -9.3326,-1.77605 -12.7244,-4.95602 1.05,-1.69611 1.7673,-4.33688 3.9046,-4.87169 4.2757,2.28667 8.6155,5.41211 13.7794,4.65541 3.9983,-0.15285 7.8083,-3.13356 8.4696,-7.16491 0.9053,-3.7752 -0.9851,-7.52855 -3.636,-10.09858 -4.9745,-5.18171 -11.857,-8.09892 -16.5586,-13.56164 -4.3027,-4.9486 -4.7661,-13.24932 -0.1062,-18.12124 z m 0,0"
         style="opacity:1;fill:none;stroke:#475157;stroke-width:0.125;stroke-linecap:butt;stroke-linejoin:miter;stroke-miterlimit:10"
         inkscape:connector-curvature="0" />
      <path
         id="path3679"
         d="m 1296.6464,687.94016 c 7.1737,-7.67615 21.1201,-7.43978 28.122,0.32973 -1.1565,1.57958 -2.4743,3.0225 -3.747,4.4801 -4.1848,-2.60687 -9.2364,-5.63047 -14.2705,-3.50311 -4.0033,1.2451 -6.2723,6.27525 -4.2218,10.0151 2.479,4.46461 7.1534,7.02171 11.0556,10.10564 5.4512,4.00304 11.1692,9.18453 11.8843,16.33895 0.8735,5.58025 -2.0419,11.2253 -6.7551,14.17736 -4.3907,3.34005 -10.1329,1.83384 -15.1959,2.1749 -4.7621,0.43979 -9.3326,-1.77605 -12.7244,-4.95602 1.05,-1.69611 1.7673,-4.33688 3.9046,-4.87169 4.2757,2.28667 8.6155,5.41211 13.7794,4.65541 3.9983,-0.15285 7.8083,-3.13356 8.4696,-7.16491 0.9053,-3.7752 -0.9851,-7.52855 -3.636,-10.09858 -4.9745,-5.18171 -11.857,-8.09892 -16.5586,-13.56164 -4.3027,-4.9486 -4.7661,-13.24932 -0.1062,-18.12124 z m 0,0"
         style="opacity:1;fill:#475157;fill-rule:nonzero;stroke:none"
         inkscape:connector-curvature="0" />
      <path
         id="path3681"
         d="m -68.587425,683.43019 c 2.22976,-0.0547 4.4655,-0.0701 6.70999,-0.0602 7.07644,19.65397 14.66677,39.12129 21.74988,58.77443 -3.30266,0.10425 -6.6023,0.0184 -9.88577,-0.2412 -1.81022,-5.71996 -3.88304,-11.34841 -5.83841,-17.01425 -7.29689,-0.0581 -14.59154,0.004 -21.88403,-0.0474 -2.13106,5.76554 -4.29351,11.52144 -6.27924,17.3412 -2.78246,0.10275 -5.5642,0.15103 -8.33696,0.13402 7.7729,-19.68819 16.09191,-39.16004 23.76454,-58.88653 z m 0,0"
         style="opacity:1;fill:none;stroke:#475157;stroke-width:0.125;stroke-linecap:butt;stroke-linejoin:miter;stroke-miterlimit:10"
         inkscape:connector-curvature="0" />
      <path
         inkscape:connector-curvature="0"
         id="path3683"
         d="m -61.877785,683.36925 c -2.24449,-0.01 -4.47923,0.006 -6.70899,0.0605 -7.67263,19.72649 -15.99272,39.19853 -23.76562,58.88672 2.77276,0.017 5.55543,-0.0301 8.33789,-0.13281 1.98573,-5.81976 4.14824,-11.57626 6.2793,-17.3418 7.29249,0.0514 14.58592,-0.0112 21.88281,0.0469 1.95537,5.66584 4.02962,11.29371 5.83984,17.01367 3.28347,0.2596 6.58211,0.34644 9.88477,0.24219 -7.08311,-19.65314 -14.67356,-39.12143 -21.75,-58.77539 z m -4.30664,9.76953 c 2.2925,8.63195 5.41964,17.0026 8.1289,25.50781 -5.72863,-0.0385 -11.45296,-0.0344 -17.17578,0 3.19218,-8.44284 5.97092,-17.02729 9.04688,-25.50781 z"
         style="opacity:1;fill:#475157;fill-rule:nonzero;stroke:none" />
      <path
         id="path3685"
         d="m 26.105845,683.38798 c 9.699,-0.17372 19.40163,-0.031 29.10545,-0.0879 -0.006,2.08391 -0.007,4.17222 10e-4,6.26773 -6.87167,-0.0127 -13.74028,-0.0172 -20.60632,-4.8e-4 10e-4,6.16004 -0.0489,12.32233 0.0637,18.4859 6.76034,-0.0841 13.52399,-0.0601 20.29032,-0.0301 -0.0714,2.08655 -0.13215,4.18372 -0.1974,6.28264 -6.71883,-0.10512 -13.43536,-0.0617 -20.14892,-0.0472 -0.0174,7.18193 -0.0153,14.3655 -0.002,21.55113 8.11684,-1.2e-4 16.23571,-7.3e-4 24.3573,-0.005 -0.0113,2.13727 -0.0164,4.2787 -0.0125,6.42856 -10.95265,-0.0834 -21.90866,0.0699 -32.8534,-0.25501 0.1085,-19.52995 0.10525,-39.06139 0.002,-58.59007 z m 0,0"
         style="opacity:1;fill:none;stroke:#475157;stroke-width:0.125;stroke-linecap:butt;stroke-linejoin:miter;stroke-miterlimit:10"
         inkscape:connector-curvature="0" />
      <path
         id="path3687"
         d="m 26.105845,683.38798 c 9.699,-0.17372 19.40163,-0.031 29.10545,-0.0879 -0.006,2.08391 -0.007,4.17222 10e-4,6.26773 -6.87167,-0.0127 -13.74028,-0.0172 -20.60632,-4.8e-4 10e-4,6.16004 -0.0489,12.32233 0.0637,18.4859 6.76034,-0.0841 13.52399,-0.0601 20.29032,-0.0301 -0.0714,2.08655 -0.13215,4.18372 -0.1974,6.28264 -6.71883,-0.10512 -13.43536,-0.0617 -20.14892,-0.0472 -0.0174,7.18193 -0.0153,14.3655 -0.002,21.55113 8.11684,-1.2e-4 16.23571,-7.3e-4 24.3573,-0.005 -0.0113,2.13727 -0.0164,4.2787 -0.0125,6.42856 -10.95265,-0.0834 -21.90866,0.0699 -32.8534,-0.25501 0.1085,-19.52995 0.10525,-39.06139 0.002,-58.59007 z m 0,0"
         style="opacity:1;fill:#475157;fill-rule:nonzero;stroke:none"
         inkscape:connector-curvature="0" />
      <path
         id="path3689"
         d="m 101.16757,684.16151 c 2.69861,-0.54564 5.4089,-1.06079 8.14241,-1.48581 4.37498,16.37182 9.19786,32.62682 13.26991,49.0833 4.9589,-16.0973 9.36762,-32.38883 14.35213,-48.49237 2.36757,0.0499 4.74903,0.10375 7.13456,0.20601 4.54594,16.22712 9.76537,32.27004 13.78327,48.64653 4.85859,-16.44554 9.40228,-32.99249 14.31925,-49.42489 2.27652,0.24725 4.54709,0.52976 6.84504,0.79403 -5.48252,19.75362 -12.20861,39.15201 -17.99654,58.82247 -2.52562,0.1611 -5.04845,0.14043 -7.55305,-0.0649 -4.50078,-15.88451 -9.46905,-31.6407 -13.51628,-47.65035 -4.88462,15.80043 -9.26823,31.76832 -14.12045,47.58741 -2.49788,0.0419 -4.98624,0.0628 -7.46724,0.059 -5.68856,-19.37318 -11.69719,-38.65443 -17.19301,-58.08045 z m 0,0"
         style="opacity:1;fill:none;stroke:#475157;stroke-width:0.125;stroke-linecap:butt;stroke-linejoin:miter;stroke-miterlimit:10"
         inkscape:connector-curvature="0" />
      <path
         id="path3691"
         d="m 101.16757,684.16151 c 2.69861,-0.54564 5.4089,-1.06079 8.14241,-1.48581 4.37498,16.37182 9.19786,32.62682 13.26991,49.0833 4.9589,-16.0973 9.36762,-32.38883 14.35213,-48.49237 2.36757,0.0499 4.74903,0.10375 7.13456,0.20601 4.54594,16.22712 9.76537,32.27004 13.78327,48.64653 4.85859,-16.44554 9.40228,-32.99249 14.31925,-49.42489 2.27652,0.24725 4.54709,0.52976 6.84504,0.79403 -5.48252,19.75362 -12.20861,39.15201 -17.99654,58.82247 -2.52562,0.1611 -5.04845,0.14043 -7.55305,-0.0649 -4.50078,-15.88451 -9.46905,-31.6407 -13.51628,-47.65035 -4.88462,15.80043 -9.26823,31.76832 -14.12045,47.58741 -2.49788,0.0419 -4.98624,0.0628 -7.46724,0.059 -5.68856,-19.37318 -11.69719,-38.65443 -17.19301,-58.08045 z m 0,0"
         style="opacity:1;fill:#475157;fill-rule:nonzero;stroke:none"
         inkscape:connector-curvature="0" />
      <path
         id="path3693"
         d="m 194.02147,683.29528 c 9.6857,0.0655 19.37468,-0.0782 29.06456,0.0866 -0.0143,2.0248 -0.008,4.05586 0.0181,6.09215 -6.92111,0.18573 -13.84206,-0.0139 -20.75641,0.16605 0.0987,6.11502 0.0547,12.23287 0.062,18.35251 6.80065,0.10825 13.6162,-0.24775 20.4131,0.27652 -0.0495,1.97049 -0.0749,3.949 -0.0884,5.93243 -6.79868,0.13291 -13.59835,-0.11988 -20.38644,0.2026 0.10575,7.11632 0.0745,14.23547 0.0256,21.35587 8.15249,0.12577 16.30922,-0.0395 24.46733,0.11413 -0.0252,2.04882 -0.0321,4.10465 -0.0231,6.16665 -10.92513,0.66747 -21.87918,0.13464 -32.81217,0.10575 -0.0291,-19.61773 -0.0616,-39.23508 0.0159,-58.8513 z m 0,0"
         style="opacity:1;fill:none;stroke:#475157;stroke-width:0.125;stroke-linecap:butt;stroke-linejoin:miter;stroke-miterlimit:10"
         inkscape:connector-curvature="0" />
      <path
         id="path3695"
         d="m 194.02147,683.29528 c 9.6857,0.0655 19.37468,-0.0782 29.06456,0.0866 -0.0143,2.0248 -0.008,4.05586 0.0181,6.09215 -6.92111,0.18573 -13.84206,-0.0139 -20.75641,0.16605 0.0987,6.11502 0.0547,12.23287 0.062,18.35251 6.80065,0.10825 13.6162,-0.24775 20.4131,0.27652 -0.0495,1.97049 -0.0749,3.949 -0.0884,5.93243 -6.79868,0.13291 -13.59835,-0.11988 -20.38644,0.2026 0.10575,7.11632 0.0745,14.23547 0.0256,21.35587 8.15249,0.12577 16.30922,-0.0395 24.46733,0.11413 -0.0252,2.04882 -0.0321,4.10465 -0.0231,6.16665 -10.92513,0.66747 -21.87918,0.13464 -32.81217,0.10575 -0.0291,-19.61773 -0.0616,-39.23508 0.0159,-58.8513 z m 0,0"
         style="opacity:1;fill:#475157;fill-rule:nonzero;stroke:none"
         inkscape:connector-curvature="0" />
      <path
         id="path3697"
         d="m 289.00565,683.30192 c 15.29688,0.0192 30.59525,-10e-4 45.89564,0.01 -0.01,2.07619 -0.01,4.1573 0.004,6.24496 -6.3543,0.004 -12.7039,-0.008 -19.04961,0.01 -0.001,17.52829 -0.004,35.05701 0.004,52.58679 -2.70565,0.091 -5.40702,0.16837 -8.09338,0.21747 -0.007,-17.54976 -0.16182,-35.10181 0.0834,-52.64832 -6.28725,-0.29735 -12.57795,-0.13559 -18.86065,-0.15626 -0.007,-2.0942 -0.002,-4.18259 0.0174,-6.2653 z m 0,0"
         style="opacity:1;fill:none;stroke:#475157;stroke-width:0.125;stroke-linecap:butt;stroke-linejoin:miter;stroke-miterlimit:10"
         inkscape:connector-curvature="0" />
      <path
         id="path3699"
         d="m 289.00565,683.30192 c 15.29688,0.0192 30.59525,-10e-4 45.89564,0.01 -0.01,2.07619 -0.01,4.1573 0.004,6.24496 -6.3543,0.004 -12.7039,-0.008 -19.04961,0.01 -0.001,17.52829 -0.004,35.05701 0.004,52.58679 -2.70565,0.091 -5.40702,0.16837 -8.09338,0.21747 -0.007,-17.54976 -0.16182,-35.10181 0.0834,-52.64832 -6.28725,-0.29735 -12.57795,-0.13559 -18.86065,-0.15626 -0.007,-2.0942 -0.002,-4.18259 0.0174,-6.2653 z m 0,0"
         style="opacity:1;fill:#475157;fill-rule:nonzero;stroke:none"
         inkscape:connector-curvature="0" />
      <path
         id="path3701"
         d="m 350.2698,683.29873 c 9.67901,0.0449 19.36117,-0.0504 29.0457,0.0586 -0.009,2.03601 0.005,4.07896 0.0366,6.12672 -6.91776,0.15817 -13.83361,-0.005 -20.74333,0.14304 0.0806,6.1247 0.0354,12.25199 0.0662,18.38114 6.70899,-0.0211 13.42229,0.0322 20.13945,-0.0504 0.0936,2.0734 0.16489,4.14902 0.27685,6.23388 -6.82548,0.13237 -13.64916,-0.058 -20.46523,0.15715 0.0496,7.13188 0.059,14.26582 -0.0112,21.40132 8.1547,0.14922 16.3147,-0.0398 24.47618,0.12951 -0.0232,2.03328 -0.027,4.07218 -0.009,6.11852 -10.9395,0.27951 -21.88552,0.23912 -32.82302,0.16824 -0.0408,-19.62314 -0.0609,-39.24597 0.01,-58.8677 z m 0,0"
         style="opacity:1;fill:none;stroke:#475157;stroke-width:0.125;stroke-linecap:butt;stroke-linejoin:miter;stroke-miterlimit:10"
         inkscape:connector-curvature="0" />
      <path
         id="path3703"
         d="m 350.2698,683.29873 c 9.67901,0.0449 19.36117,-0.0504 29.0457,0.0586 -0.009,2.03601 0.005,4.07896 0.0366,6.12672 -6.91776,0.15817 -13.83361,-0.005 -20.74333,0.14304 0.0806,6.1247 0.0354,12.25199 0.0662,18.38114 6.70899,-0.0211 13.42229,0.0322 20.13945,-0.0504 0.0936,2.0734 0.16489,4.14902 0.27685,6.23388 -6.82548,0.13237 -13.64916,-0.058 -20.46523,0.15715 0.0496,7.13188 0.059,14.26582 -0.0112,21.40132 8.1547,0.14922 16.3147,-0.0398 24.47618,0.12951 -0.0232,2.03328 -0.027,4.07218 -0.009,6.11852 -10.9395,0.27951 -21.88552,0.23912 -32.82302,0.16824 -0.0408,-19.62314 -0.0609,-39.24597 0.01,-58.8677 z m 0,0"
         style="opacity:1;fill:#475157;fill-rule:nonzero;stroke:none"
         inkscape:connector-curvature="0" />
      <path
         id="path3705"
         d="m 399.87002,683.37238 c 9.97955,0.671 21.87273,-2.6706 30.14981,4.56211 7.58533,8.33321 3.74204,22.44267 -5.60673,27.81814 4.70114,8.37196 9.84172,16.49644 14.37021,24.96945 -2.9498,0.8502 -5.98923,1.33767 -9.04303,1.40505 -4.35501,-7.97236 -8.66327,-15.96904 -12.85978,-24.02107 -2.8503,-0.0825 -5.69012,-0.11763 -8.52084,-0.13079 -0.007,8.11964 -0.0174,16.24061 0.009,24.36355 -2.84203,0.23089 -5.68419,0.1373 -8.48943,-0.22778 0.0604,-19.57997 0.0753,-39.16011 -0.009,-58.73866 z m 0,0"
         style="opacity:1;fill:none;stroke:#475157;stroke-width:0.125;stroke-linecap:butt;stroke-linejoin:miter;stroke-miterlimit:10"
         inkscape:connector-curvature="0" />
      <path
         inkscape:connector-curvature="0"
         id="path3707"
         d="m 413.60463,683.17003 c -4.63555,0.021 -9.36832,0.49668 -13.73437,0.20312 0.0843,19.57855 0.0702,39.15831 0.01,58.73828 2.80524,0.36508 5.64625,0.45746 8.48828,0.22656 -0.0264,-8.12294 -0.0148,-16.24364 -0.008,-24.36328 2.83072,0.0132 5.66923,0.0484 8.51953,0.13086 4.19651,8.05203 8.50437,16.04913 12.85938,24.02149 3.0538,-0.0674 6.09316,-0.5541 9.04296,-1.4043 -4.52848,-8.47301 -9.668,-16.59874 -14.36914,-24.9707 9.34877,-5.37547 13.19276,-19.48515 5.60743,-27.81836 -4.65586,-4.0684 -10.45602,-4.79067 -16.41602,-4.76367 z m 0.49219,6.34375 c 3.25661,0.035 6.45098,0.49628 8.71289,3.05468 4.35737,5.90218 2.04573,16.48095 -5.4707,18.5625 -2.90163,0.79925 -5.94776,0.59707 -8.90625,0.74805 -0.15418,-7.4441 -0.0562,-14.88853 -0.0762,-22.33008 1.81025,0.0751 3.78627,-0.0562 5.74024,-0.0352 z"
         style="opacity:1;fill:#475157;fill-rule:nonzero;stroke:none" />
      <path
         id="path3709"
         d="m 454.60794,683.23512 c 2.7101,0.34042 6.32563,-0.89706 8.01457,1.95156 12.31256,14.72189 24.79691,29.30964 36.65928,44.40409 0.0523,-15.42789 -0.0161,-30.85493 0.0329,-46.2812 2.26155,-0.006 4.53884,-0.005 6.83006,-4e-5 0.0294,19.72973 0.0246,39.45999 0.001,59.19104 -2.5846,-0.17064 -5.87555,0.6209 -7.70522,-1.7092 -12.3263,-14.63245 -24.3808,-29.49858 -36.50436,-44.2951 -0.29517,15.16252 -0.13108,30.33481 -0.0826,45.502 -2.42847,0.073 -4.84569,0.15102 -7.24851,0.22604 0.001,-19.66382 -0.005,-39.32669 0.002,-58.98919 z m 0,0"
         style="opacity:1;fill:none;stroke:#475157;stroke-width:0.125;stroke-linecap:butt;stroke-linejoin:miter;stroke-miterlimit:10"
         inkscape:connector-curvature="0" />
      <path
         id="path3711"
         d="m 454.60794,683.23512 c 2.7101,0.34042 6.32563,-0.89706 8.01457,1.95156 12.31256,14.72189 24.79691,29.30964 36.65928,44.40409 0.0523,-15.42789 -0.0161,-30.85493 0.0329,-46.2812 2.26155,-0.006 4.53884,-0.005 6.83006,-4e-5 0.0294,19.72973 0.0246,39.45999 0.001,59.19104 -2.5846,-0.17064 -5.87555,0.6209 -7.70522,-1.7092 -12.3263,-14.63245 -24.3808,-29.49858 -36.50436,-44.2951 -0.29517,15.16252 -0.13108,30.33481 -0.0826,45.502 -2.42847,0.073 -4.84569,0.15102 -7.24851,0.22604 0.001,-19.66382 -0.005,-39.32669 0.002,-58.98919 z m 0,0"
         style="opacity:1;fill:#475157;fill-rule:nonzero;stroke:none"
         inkscape:connector-curvature="0" />
      <path
         id="path3713"
         d="m 560.56473,683.31039 c 8.83585,0.5507 18.30829,-1.58316 26.63973,2.23245 7.54596,3.81909 8.62955,13.77685 5.8205,20.95524 -1.54612,3.97066 -4.99804,6.65741 -8.12229,9.34243 4.8006,8.30287 9.73254,16.53198 14.49181,24.86351 -3.03377,0.91204 -6.16251,1.43781 -9.31921,1.40099 -4.17471,-8.11318 -8.55649,-16.11488 -12.88144,-24.14324 -2.56647,0.42292 -6.19905,-0.903 -8.08584,0.8056 -0.3904,7.9057 0.033,15.84279 -0.15861,23.76359 -2.81239,0.0184 -5.60561,-0.043 -8.38894,-0.17544 -0.0171,-19.68244 -0.0244,-39.36404 0.004,-59.04513 z m 0,0"
         style="opacity:1;fill:none;stroke:#475157;stroke-width:0.125;stroke-linecap:butt;stroke-linejoin:miter;stroke-miterlimit:10"
         inkscape:connector-curvature="0" />
      <path
         inkscape:connector-curvature="0"
         id="path3715"
         d="m 574.07338,683.20323 c -4.51402,-0.0123 -9.08989,0.38277 -13.50781,0.10742 l -0.002,0 c -0.0284,19.68109 -0.021,39.36248 -0.004,59.04492 2.78333,0.13244 5.57823,0.19418 8.39062,0.17578 0.19161,-7.9208 -0.23219,-15.85797 0.15821,-23.76367 1.88679,-1.7086 5.51946,-0.38372 8.08593,-0.80664 4.32495,8.02836 8.70615,16.03135 12.88086,24.14453 3.1567,0.0368 6.28459,-0.4903 9.31836,-1.40234 -4.75927,-8.33153 -9.68963,-16.56041 -14.49023,-24.86328 3.12425,-2.68502 6.57497,-5.37114 8.12109,-9.3418 2.80905,-7.17839 1.72565,-17.13599 -5.82031,-20.95508 -4.16572,-1.9078 -8.61684,-2.32752 -13.13086,-2.33984 z m 0.5,6.31055 c 3.1552,0.0209 6.26089,0.41202 8.50195,2.83398 3.89537,4.75869 2.95149,12.64478 -1.51367,16.70899 -3.34837,3.12987 -8.211,2.58107 -12.40625,2.89062 -0.36542,-7.47277 -0.15043,-14.95537 -0.14062,-22.42969 1.7543,0.10412 3.66547,-0.0165 5.55859,-0.004 z"
         style="opacity:1;fill:#475157;fill-rule:nonzero;stroke:none" />
      <path
         id="path3717"
         d="m 615.26652,683.30007 c 9.69238,0.0617 19.3895,-0.0918 29.08812,0.0911 -0.035,2.03227 -0.0462,4.06975 -0.0325,6.11395 -6.90625,0.11413 -13.80887,-0.0113 -20.70475,0.11176 0.065,6.12711 0.0275,12.25663 0.055,18.3881 6.62025,0.0914 13.25263,-0.20117 19.87825,0.10787 0.70288,1.91605 0.38113,4.03959 0.5755,6.05568 -6.84212,0.18417 -13.68287,-0.0604 -20.51337,0.19632 0.0712,7.12116 0.0812,14.24509 -0.0125,21.36984 8.15037,0.17423 16.30712,-0.0141 24.46675,0.1264 -0.015,2.02753 0,4.06315 0.0325,6.1039 -10.9405,0.47415 -21.89638,0.29915 -32.8375,0.34817 -0.0525,-19.67157 -0.0588,-39.34286 0,-59.01309 z m 0,0"
         style="opacity:1;fill:none;stroke:#475157;stroke-width:0.125;stroke-linecap:butt;stroke-linejoin:miter;stroke-miterlimit:10"
         inkscape:connector-curvature="0" />
      <path
         id="path3719"
         d="m 615.26652,683.30007 c 9.69238,0.0617 19.3895,-0.0918 29.08812,0.0911 -0.035,2.03227 -0.0462,4.06975 -0.0325,6.11395 -6.90625,0.11413 -13.80887,-0.0113 -20.70475,0.11176 0.065,6.12711 0.0275,12.25663 0.055,18.3881 6.62025,0.0914 13.25263,-0.20117 19.87825,0.10787 0.70288,1.91605 0.38113,4.03959 0.5755,6.05568 -6.84212,0.18417 -13.68287,-0.0604 -20.51337,0.19632 0.0712,7.12116 0.0812,14.24509 -0.0125,21.36984 8.15037,0.17423 16.30712,-0.0141 24.46675,0.1264 -0.015,2.02753 0,4.06315 0.0325,6.1039 -10.9405,0.47415 -21.89638,0.29915 -32.8375,0.34817 -0.0525,-19.67157 -0.0588,-39.34286 0,-59.01309 z m 0,0"
         style="opacity:1;fill:#475157;fill-rule:nonzero;stroke:none"
         inkscape:connector-curvature="0" />
      <path
         id="path3721"
         d="m 716.82127,683.30914 c 9.67638,0.001 19.35638,-0.006 29.04063,0.004 -0.025,2.07617 -0.0275,4.15884 -0.0138,6.24697 -6.92,0.0533 -13.839,-0.16207 -20.7435,0.16781 0.19375,6.06922 0.139,12.14464 0.07,18.21964 6.79775,0.1251 13.60275,-0.033 20.4115,0.1338 -0.0487,2.05278 -0.0637,4.11498 -0.0725,6.18043 -6.72626,-0.04 -13.44738,0.0216 -20.16188,-0.0598 -0.2995,7.13772 0.0412,14.2852 -0.257,21.42654 8.06713,0.39951 16.15025,0.036 24.2315,0.2394 -0.02,2.0289 -0.015,4.06469 0.0163,6.10675 -10.83413,0.91914 -21.68925,-0.0249 -32.53075,0.36528 -0.0162,-19.67775 -0.0337,-39.3547 0.0125,-59.03109 z m 0,0"
         style="opacity:1;fill:none;stroke:#475157;stroke-width:0.125;stroke-linecap:butt;stroke-linejoin:miter;stroke-miterlimit:10"
         inkscape:connector-curvature="0" />
      <path
         id="path3723"
         d="m 716.82127,683.30914 c 9.67638,0.001 19.35638,-0.006 29.04063,0.004 -0.025,2.07617 -0.0275,4.15884 -0.0138,6.24697 -6.92,0.0533 -13.839,-0.16207 -20.7435,0.16781 0.19375,6.06922 0.139,12.14464 0.07,18.21964 6.79775,0.1251 13.60275,-0.033 20.4115,0.1338 -0.0487,2.05278 -0.0637,4.11498 -0.0725,6.18043 -6.72626,-0.04 -13.44738,0.0216 -20.16188,-0.0598 -0.2995,7.13772 0.0412,14.2852 -0.257,21.42654 8.06713,0.39951 16.15025,0.036 24.2315,0.2394 -0.02,2.0289 -0.015,4.06469 0.0163,6.10675 -10.83413,0.91914 -21.68925,-0.0249 -32.53075,0.36528 -0.0162,-19.67775 -0.0337,-39.3547 0.0125,-59.03109 z m 0,0"
         style="opacity:1;fill:#475157;fill-rule:nonzero;stroke:none"
         inkscape:connector-curvature="0" />
      <path
         id="path3725"
         d="m 766.50389,683.30624 c 8.40175,0.48605 17.208,-1.27695 25.31563,1.58488 6.78087,2.44019 9.83962,10.32178 8.4525,17.05424 -0.64587,5.85733 -4.63425,10.60571 -9.372,13.78496 4.7095,8.40664 9.95175,16.51935 14.36287,25.09495 -2.97374,0.80465 -6.01612,1.25752 -9.0775,1.28244 -4.35287,-7.9483 -8.38875,-16.08008 -12.93174,-23.90959 -2.79363,-0.43943 -5.61488,-0.16348 -8.3955,-0.0761 0.095,7.99543 0.0463,15.99309 0.0387,23.99223 -2.80537,0.0614 -5.60212,0.11488 -8.37887,0.1513 -0.0725,-19.65359 -0.0425,-39.30683 -0.0138,-58.95924 z m 0,0"
         style="opacity:1;fill:none;stroke:#475157;stroke-width:0.125;stroke-linecap:butt;stroke-linejoin:miter;stroke-miterlimit:10"
         inkscape:connector-curvature="0" />
      <path
         inkscape:connector-curvature="0"
         id="path3727"
         d="m 779.2726,683.20714 c -4.26458,0.0223 -8.56732,0.34242 -12.76758,0.0996 -0.0287,19.65241 -0.0588,39.30539 0.0137,58.95898 2.77675,-0.0364 5.57354,-0.0909 8.37891,-0.15234 0.008,-7.99914 0.0559,-15.99676 -0.0391,-23.99219 2.78062,-0.0874 5.6009,-0.36326 8.39453,0.0762 4.54299,7.82951 8.57877,15.96186 12.93164,23.91016 3.06138,-0.0249 6.10438,-0.47856 9.07812,-1.28321 -4.41112,-8.5756 -9.65378,-16.68711 -14.36328,-25.09375 4.73775,-3.17925 8.72718,-7.92782 9.37305,-13.78515 1.38712,-6.73246 -1.67226,-14.6145 -8.45313,-17.05469 -4.05381,-1.43092 -8.28164,-1.70586 -12.54687,-1.68359 z m 1.28711,6.30468 c 3.22852,0.014 6.39859,0.46366 8.6875,2.95899 3.67663,4.74028 2.75081,12.30729 -1.42969,16.46484 -3.48725,3.24094 -8.51271,2.8191 -12.89258,2.87695 -0.0488,-7.40201 0.0301,-14.8029 -0.0625,-22.20117 1.80146,0.0411 3.76015,-0.10797 5.69727,-0.0996 z"
         style="opacity:1;fill:#475157;fill-rule:nonzero;stroke:none" />
      <path
         id="path3729"
         d="m 813.87164,684.07268 c 2.8145,-0.52071 5.63225,-1.02774 8.47575,-1.52909 5.812,16.46872 11.92426,32.86992 16.62375,49.70179 5.91288,-16.58923 11.57513,-33.27675 17.95163,-49.70062 2.51012,0.33444 5.03575,0.69386 7.57725,1.06003 -7.52788,19.01973 -15.14838,38.00667 -22.77275,56.98534 -0.77225,2.98044 -4.37063,1.17987 -6.51438,1.35622 -6.81087,-19.40007 -14.50725,-38.48372 -21.34125,-57.87367 z m 0,0"
         style="opacity:1;fill:none;stroke:#475157;stroke-width:0.125;stroke-linecap:butt;stroke-linejoin:miter;stroke-miterlimit:10"
         inkscape:connector-curvature="0" />
      <path
         id="path3731"
         d="m 813.87164,684.07268 c 2.8145,-0.52071 5.63225,-1.02774 8.47575,-1.52909 5.812,16.46872 11.92426,32.86992 16.62375,49.70179 5.91288,-16.58923 11.57513,-33.27675 17.95163,-49.70062 2.51012,0.33444 5.03575,0.69386 7.57725,1.06003 -7.52788,19.01973 -15.14838,38.00667 -22.77275,56.98534 -0.77225,2.98044 -4.37063,1.17987 -6.51438,1.35622 -6.81087,-19.40007 -14.50725,-38.48372 -21.34125,-57.87367 z m 0,0"
         style="opacity:1;fill:#475157;fill-rule:nonzero;stroke:none"
         inkscape:connector-curvature="0" />
      <path
         id="path3733"
         d="m 879.00602,683.30557 c 9.69738,0.0509 19.40025,-0.098 29.1055,0.0885 -0.045,2.03558 -0.065,4.0759 -0.055,6.12325 -6.90738,0.099 -13.80963,-0.0385 -20.70388,0.11825 0.0888,6.12296 0.0362,12.24856 0.075,18.37607 6.70425,-0.0267 13.41513,0.0301 20.132,-0.0572 0.0963,2.06872 0.17163,4.14067 0.3005,6.22078 -6.83287,0.16289 -13.66187,-0.0429 -20.4815,0.16966 0.0387,7.12712 0.0675,14.25658 -0.0288,21.38707 8.15513,0.1846 16.318,-0.0256 24.48388,0.14166 -0.0275,2.0351 -0.0275,4.0769 6.2e-4,6.1252 -10.94187,0.2483 -21.88537,0.18068 -32.82175,0.28278 -0.0575,-19.65923 -0.0438,-39.31798 -0.0125,-58.97596 z m 0,0"
         style="opacity:1;fill:none;stroke:#475157;stroke-width:0.125;stroke-linecap:butt;stroke-linejoin:miter;stroke-miterlimit:10"
         inkscape:connector-curvature="0" />
      <path
         id="path3735"
         d="m 879.00602,683.30557 c 9.69738,0.0509 19.40025,-0.098 29.1055,0.0885 -0.045,2.03558 -0.065,4.0759 -0.055,6.12325 -6.90738,0.099 -13.80963,-0.0385 -20.70388,0.11825 0.0888,6.12296 0.0362,12.24856 0.075,18.37607 6.70425,-0.0267 13.41513,0.0301 20.132,-0.0572 0.0963,2.06872 0.17163,4.14067 0.3005,6.22078 -6.83287,0.16289 -13.66187,-0.0429 -20.4815,0.16966 0.0387,7.12712 0.0675,14.25658 -0.0288,21.38707 8.15513,0.1846 16.318,-0.0256 24.48388,0.14166 -0.0275,2.0351 -0.0275,4.0769 6.2e-4,6.1252 -10.94187,0.2483 -21.88537,0.18068 -32.82175,0.28278 -0.0575,-19.65923 -0.0438,-39.31798 -0.0125,-58.97596 z m 0,0"
         style="opacity:1;fill:#475157;fill-rule:nonzero;stroke:none"
         inkscape:connector-curvature="0" />
      <path
         id="path3737"
         d="m 960.26314,683.29656 c 2.77913,0.004 5.5765,0.0113 8.38963,0.0227 0.02,11.6546 0,23.31017 0,34.96685 0.0637,5.01567 0.60763,10.47474 3.84363,14.54391 3.95649,4.67136 10.99737,5.10546 16.51237,3.44182 6.313,-2.2191 8.81425,-9.33461 8.976,-15.48755 0.192,-12.4876 -0.0125,-24.97996 0.0838,-37.46788 2.57663,-0.01 5.17363,-0.0131 7.78613,-0.0136 -0.036,12.91743 0.092,25.83878 -0.045,38.75605 -0.1025,8.51908 -5.2965,17.31122 -13.7805,19.73291 -5.76875,0.47996 -11.58775,0.28265 -17.35675,0.14033 -8.77538,-1.41817 -13.95425,-10.37935 -14.188,-18.71889 -0.56238,-13.29061 -0.12638,-26.61451 -0.2155,-39.91671 z m 0,0"
         style="opacity:1;fill:none;stroke:#475157;stroke-width:0.125;stroke-linecap:butt;stroke-linejoin:miter;stroke-miterlimit:10"
         inkscape:connector-curvature="0" />
      <path
         id="path3739"
         d="m 960.26314,683.29656 c 2.77913,0.004 5.5765,0.0113 8.38963,0.0227 0.02,11.6546 0,23.31017 0,34.96685 0.0637,5.01567 0.60763,10.47474 3.84363,14.54391 3.95649,4.67136 10.99737,5.10546 16.51237,3.44182 6.313,-2.2191 8.81425,-9.33461 8.976,-15.48755 0.192,-12.4876 -0.0125,-24.97996 0.0838,-37.46788 2.57663,-0.01 5.17363,-0.0131 7.78613,-0.0136 -0.036,12.91743 0.092,25.83878 -0.045,38.75605 -0.1025,8.51908 -5.2965,17.31122 -13.7805,19.73291 -5.76875,0.47996 -11.58775,0.28265 -17.35675,0.14033 -8.77538,-1.41817 -13.95425,-10.37935 -14.188,-18.71889 -0.56238,-13.29061 -0.12638,-26.61451 -0.2155,-39.91671 z m 0,0"
         style="opacity:1;fill:#475157;fill-rule:nonzero;stroke:none"
         inkscape:connector-curvature="0" />
      <path
         id="path3741"
         d="m 1027.1093,683.23403 c 2.3897,0.40223 5.6466,-0.88004 7.3203,1.45085 12.5115,14.80788 25.1082,29.56528 37.0515,44.84593 0.02,-15.4135 -0.043,-30.82604 0.029,-46.23775 2.2552,0.004 4.5484,0.0166 6.8489,0.0321 -10e-4,19.71309 -0.019,39.42661 0.013,59.141 -2.5962,0.11275 -5.8529,0.76753 -7.596,-1.66834 -12.4765,-14.79412 -24.7289,-29.78241 -36.8969,-44.82936 0.2165,15.4432 0.076,30.891 0.079,46.33738 -2.3091,-0.0507 -4.5812,-0.10625 -6.8456,-0.16618 0,-19.63597 -0.013,-39.27101 0,-58.90566 z m 0,0"
         style="opacity:1;fill:none;stroke:#475157;stroke-width:0.125;stroke-linecap:butt;stroke-linejoin:miter;stroke-miterlimit:10"
         inkscape:connector-curvature="0" />
      <path
         id="path3743"
         d="m 1027.1093,683.23403 c 2.3897,0.40223 5.6466,-0.88004 7.3203,1.45085 12.5115,14.80788 25.1082,29.56528 37.0515,44.84593 0.02,-15.4135 -0.043,-30.82604 0.029,-46.23775 2.2552,0.004 4.5484,0.0166 6.8489,0.0321 -10e-4,19.71309 -0.019,39.42661 0.013,59.141 -2.5962,0.11275 -5.8529,0.76753 -7.596,-1.66834 -12.4765,-14.79412 -24.7289,-29.78241 -36.8969,-44.82936 0.2165,15.4432 0.076,30.891 0.079,46.33738 -2.3091,-0.0507 -4.5812,-0.10625 -6.8456,-0.16618 0,-19.63597 -0.013,-39.27101 0,-58.90566 z m 0,0"
         style="opacity:1;fill:#475157;fill-rule:nonzero;stroke:none"
         inkscape:connector-curvature="0" />
      <path
         id="path3745"
         d="m 1100.5728,683.30947 c 2.7788,-0.005 5.568,-0.009 8.384,-0.008 0.038,19.7007 0.033,39.40209 0,59.10412 -2.8212,0.0341 -5.6196,-2.3e-4 -8.4023,-0.0966 0,-19.66749 -0.035,-39.33416 0.016,-59.00026 z m 0,0"
         style="opacity:1;fill:none;stroke:#475157;stroke-width:0.125;stroke-linecap:butt;stroke-linejoin:miter;stroke-miterlimit:10"
         inkscape:connector-curvature="0" />
      <path
         id="path3747"
         d="m 1100.5728,683.30947 c 2.7788,-0.005 5.568,-0.009 8.384,-0.008 0.038,19.7007 0.033,39.40209 0,59.10412 -2.8212,0.0341 -5.6196,-2.3e-4 -8.4023,-0.0966 0,-19.66749 -0.035,-39.33416 0.016,-59.00026 z m 0,0"
         style="opacity:1;fill:#475157;fill-rule:nonzero;stroke:none"
         inkscape:connector-curvature="0" />
      <path
         id="path3749"
         d="m 1123.5688,684.06289 c 2.7075,-0.51536 5.4137,-1.0482 8.1505,-1.6093 6.7741,16.07428 11.3056,33.00332 17.367,49.34254 5.35,-16.59335 11.3146,-32.99072 17.6319,-49.2384 2.437,0.30234 4.8778,0.59702 7.3638,0.88517 -7.2808,19.77665 -15.6073,39.15527 -23.1956,58.81586 -1.9989,-0.115 -3.9594,-0.21192 -5.9077,-0.2962 -6.8672,-19.39825 -14.5673,-38.49409 -21.4099,-57.89967 z m 0,0"
         style="opacity:1;fill:none;stroke:#475157;stroke-width:0.125;stroke-linecap:butt;stroke-linejoin:miter;stroke-miterlimit:10"
         inkscape:connector-curvature="0" />
      <path
         id="path3751"
         d="m 1123.5688,684.06289 c 2.7075,-0.51536 5.4137,-1.0482 8.1505,-1.6093 6.7741,16.07428 11.3056,33.00332 17.367,49.34254 5.35,-16.59335 11.3146,-32.99072 17.6319,-49.2384 2.437,0.30234 4.8778,0.59702 7.3638,0.88517 -7.2808,19.77665 -15.6073,39.15527 -23.1956,58.81586 -1.9989,-0.115 -3.9594,-0.21192 -5.9077,-0.2962 -6.8672,-19.39825 -14.5673,-38.49409 -21.4099,-57.89967 z m 0,0"
         style="opacity:1;fill:#475157;fill-rule:nonzero;stroke:none"
         inkscape:connector-curvature="0" />
      <path
         id="path3753"
         d="m 1188.6288,683.3633 c 9.6875,-0.12401 19.3808,-0.0125 29.0795,-0.0678 -0.023,2.0869 -0.024,4.17941 -10e-4,6.27805 -6.8713,-0.0241 -13.7346,-0.0159 -20.5909,-0.0151 -0.018,6.1669 -0.071,12.33627 0.067,18.50642 6.7433,-0.10574 13.4953,-0.0652 20.2544,-0.0466 -0.072,2.08116 -0.1025,4.1729 -0.133,6.26659 -6.7413,-0.065 -13.4755,-0.0522 -20.2016,-0.0161 0,7.17673 -0.012,14.35499 0,21.53541 8.1171,0.0113 16.2402,10e-4 24.37,10e-4 -0.033,2.12887 -0.039,4.26442 -0.027,6.40604 -10.9453,-0.28591 -21.8983,0.41637 -32.823,-0.17986 0.072,-19.55654 0.065,-39.11314 0,-58.66839 z m 0,0"
         style="opacity:1;fill:none;stroke:#475157;stroke-width:0.125;stroke-linecap:butt;stroke-linejoin:miter;stroke-miterlimit:10"
         inkscape:connector-curvature="0" />
      <path
         id="path3755"
         d="m 1188.6288,683.3633 c 9.6875,-0.12401 19.3808,-0.0125 29.0795,-0.0678 -0.023,2.0869 -0.024,4.17941 -10e-4,6.27805 -6.8713,-0.0241 -13.7346,-0.0159 -20.5909,-0.0151 -0.018,6.1669 -0.071,12.33627 0.067,18.50642 6.7433,-0.10574 13.4953,-0.0652 20.2544,-0.0466 -0.072,2.08116 -0.1025,4.1729 -0.133,6.26659 -6.7413,-0.065 -13.4755,-0.0522 -20.2016,-0.0161 0,7.17673 -0.012,14.35499 0,21.53541 8.1171,0.0113 16.2402,10e-4 24.37,10e-4 -0.033,2.12887 -0.039,4.26442 -0.027,6.40604 -10.9453,-0.28591 -21.8983,0.41637 -32.823,-0.17986 0.072,-19.55654 0.065,-39.11314 0,-58.66839 z m 0,0"
         style="opacity:1;fill:#475157;fill-rule:nonzero;stroke:none"
         inkscape:connector-curvature="0" />
      <path
         id="path3757"
         d="m 1238.6205,683.37257 c 8.7604,0.42347 18.1477,-1.59852 26.4325,2.07191 7.6151,3.58196 8.876,13.50764 6.191,20.67635 -1.4843,4.12468 -4.9471,6.99775 -8.2245,9.68228 4.6625,8.37732 9.7975,16.48717 14.3642,24.92478 -2.8967,0.74509 -5.8463,1.6116 -8.8445,1.28225 -4.9812,-7.43478 -8.3668,-15.85561 -13.065,-23.47182 -2.5773,-1.15555 -5.6332,-0.33636 -8.3672,-0.54401 -0.012,8.06741 0,16.1362 0,24.20697 -2.8511,-0.0362 -5.6824,-0.10675 -8.4944,-0.19503 0.1013,-19.5447 0.081,-39.09017 0.012,-58.63368 z m 0,0"
         style="opacity:1;fill:none;stroke:#475157;stroke-width:0.125;stroke-linecap:butt;stroke-linejoin:miter;stroke-miterlimit:10"
         inkscape:connector-curvature="0" />
      <path
         inkscape:connector-curvature="0"
         id="path3759"
         d="m 1252.0147,683.19151 c -4.4761,-0.006 -9.0116,0.39295 -13.3906,0.18164 0.069,19.54351 0.09,39.08811 -0.012,58.63281 2.812,0.0883 5.643,0.15912 8.4941,0.19532 0,-8.07077 -0.012,-16.13963 0,-24.20703 2.734,0.20764 5.7899,-0.61063 8.3672,0.54492 4.6982,7.61621 8.0852,16.03592 13.0664,23.4707 2.9982,0.32935 5.9471,-0.53616 8.8438,-1.28125 -4.5667,-8.43761 -9.7027,-16.54846 -14.3652,-24.92578 3.2774,-2.68453 6.7403,-5.55696 8.2246,-9.68164 2.685,-7.16871 1.4256,-17.09382 -6.1895,-20.67578 -4.1424,-1.83522 -8.5616,-2.24767 -13.0391,-2.25391 z m -0.9296,6.31055 c 4.1157,-0.0536 8.4087,0.22414 10.8535,3.91601 3.2814,5.6691 1.4715,14.69948 -4.9942,17.33399 -3.0995,1.2289 -6.5139,0.93767 -9.748,1.14843 -0.1833,-7.45019 -0.067,-14.90164 -0.092,-22.3496 1.2575,0.0224 2.6086,-0.031 3.9805,-0.0488 z"
         style="opacity:1;fill:#475157;fill-rule:nonzero;stroke:none" />
      <path
         id="path3761"
         d="m 1344.8617,683.38136 c 2.8111,-0.0511 5.6402,-0.0779 8.4916,-0.0928 0,19.67875 0,39.35787 0,59.03793 -2.8512,-0.0344 -5.6782,-0.1374 -8.4852,-0.29022 0.07,-19.55196 0.089,-39.10446 -0.012,-58.65494 z m 0,0"
         style="opacity:1;fill:none;stroke:#475157;stroke-width:0.125;stroke-linecap:butt;stroke-linejoin:miter;stroke-miterlimit:10"
         inkscape:connector-curvature="0" />
      <path
         id="path3763"
         d="m 1344.8617,683.38136 c 2.8111,-0.0511 5.6402,-0.0779 8.4916,-0.0928 0,19.67875 0,39.35787 0,59.03793 -2.8512,-0.0344 -5.6782,-0.1374 -8.4852,-0.29022 0.07,-19.55196 0.089,-39.10446 -0.012,-58.65494 z m 0,0"
         style="opacity:1;fill:#475157;fill-rule:nonzero;stroke:none"
         inkscape:connector-curvature="0" />
      <path
         id="path3765"
         d="m 1368.9957,683.30102 c 15.1999,0.0213 30.4032,-0.003 45.6105,0.013 -0.028,2.07476 -0.028,4.15479 9e-4,6.24132 -6.2583,0.007 -12.5072,-3.2e-4 -18.747,0.004 -0.014,17.5916 0,35.18363 0,52.77669 -2.8514,-0.0706 -5.6792,-0.18774 -8.4862,-0.32585 0.098,-17.48374 0.038,-34.96732 0.031,-52.44986 -6.1398,-0.004 -12.2701,-0.01 -18.3913,0.0125 -0.034,-2.09628 -0.039,-4.18694 -0.015,-6.27161 z m 0,0"
         style="opacity:1;fill:none;stroke:#475157;stroke-width:0.125;stroke-linecap:butt;stroke-linejoin:miter;stroke-miterlimit:10"
         inkscape:connector-curvature="0" />
      <path
         id="path3767"
         d="m 1368.9957,683.30102 c 15.1999,0.0213 30.4032,-0.003 45.6105,0.013 -0.028,2.07476 -0.028,4.15479 9e-4,6.24132 -6.2583,0.007 -12.5072,-3.2e-4 -18.747,0.004 -0.014,17.5916 0,35.18363 0,52.77669 -2.8514,-0.0706 -5.6792,-0.18774 -8.4862,-0.32585 0.098,-17.48374 0.038,-34.96732 0.031,-52.44986 -6.1398,-0.004 -12.2701,-0.01 -18.3913,0.0125 -0.034,-2.09628 -0.039,-4.18694 -0.015,-6.27161 z m 0,0"
         style="opacity:1;fill:#475157;fill-rule:nonzero;stroke:none"
         inkscape:connector-curvature="0" />
      <path
         id="path3769"
         d="m 1423.0421,684.09463 c 3.0093,-0.4978 6.033,-1.01186 9.0877,-1.47232 4.3814,8.96408 8.9063,17.86707 13.5403,26.70546 6.1533,-8.07623 9.7981,-17.93028 15.447,-26.41753 2.3983,-0.10437 4.8033,0.22544 7.2388,0.42748 l 0,1.44497 c -5.5767,8.2596 -10.2477,17.0774 -15.5777,25.48935 -1.6445,2.88902 -4.004,5.7241 -3.8054,9.24255 -0.1062,7.47327 0.013,14.95118 0.08,22.42862 -2.844,0.0669 -5.6781,0.11 -8.4801,0.16736 -0.3871,-8.58423 0.6655,-17.28479 -0.4984,-25.78963 -5.2635,-10.94526 -11.9942,-21.16111 -17.0322,-32.22631 z m 0,0"
         style="opacity:1;fill:none;stroke:#475157;stroke-width:0.125;stroke-linecap:butt;stroke-linejoin:miter;stroke-miterlimit:10"
         inkscape:connector-curvature="0" />
      <path
         id="path3771"
         d="m 1423.0421,684.09463 c 3.0093,-0.4978 6.033,-1.01186 9.0877,-1.47232 4.3814,8.96408 8.9063,17.86707 13.5403,26.70546 6.1533,-8.07623 9.7981,-17.93028 15.447,-26.41753 2.3983,-0.10437 4.8033,0.22544 7.2388,0.42748 l 0,1.44497 c -5.5767,8.2596 -10.2477,17.0774 -15.5777,25.48935 -1.6445,2.88902 -4.004,5.7241 -3.8054,9.24255 -0.1062,7.47327 0.013,14.95118 0.08,22.42862 -2.844,0.0669 -5.6781,0.11 -8.4801,0.16736 -0.3871,-8.58423 0.6655,-17.28479 -0.4984,-25.78963 -5.2635,-10.94526 -11.9942,-21.16111 -17.0322,-32.22631 z m 0,0"
         style="opacity:1;fill:#475157;fill-rule:nonzero;stroke:none"
         inkscape:connector-curvature="0" />
      <path
         id="path3773"
         d="m 408.3561,689.54966 c 4.82732,0.20029 10.83475,-1.07518 14.45381,3.01827 4.35737,5.90218 2.0462,16.48085 -5.47023,18.5624 -2.90163,0.79925 -5.94861,0.59792 -8.9071,0.7489 -0.15418,-7.4441 -0.0565,-14.88802 -0.0765,-22.32957 z m 0,0"
         style="opacity:1;fill:none;stroke:#ffffff;stroke-width:0.125;stroke-linecap:butt;stroke-linejoin:miter;stroke-miterlimit:10"
         inkscape:connector-curvature="0" />
      <path
         id="path3777"
         d="m 569.01519,689.51801 c 4.67814,0.27765 10.47372,-1.0449 14.05942,2.83023 3.89537,4.75869 2.95181,12.64395 -1.51335,16.70815 -3.34837,3.12988 -8.20985,2.58097 -12.4051,2.89052 -0.36542,-7.47277 -0.15078,-14.95458 -0.14097,-22.4289 z m 0,0"
         style="opacity:1;fill:none;stroke:#ffffff;stroke-width:0.125;stroke-linecap:butt;stroke-linejoin:miter;stroke-miterlimit:10"
         inkscape:connector-curvature="0" />
      <path
         id="path3781"
         d="m 774.86239,689.61107 c 4.80388,0.1095 10.722,-1.13191 14.38425,2.86062 3.67663,4.74028 2.75138,12.30724 -1.42912,16.46479 -3.48725,3.24094 -8.51188,2.81741 -12.89175,2.87526 -0.0488,-7.40201 0.0288,-14.8024 -0.0638,-22.20067 z m 0,0"
         style="opacity:1;fill:none;stroke:#ffffff;stroke-width:0.125;stroke-linecap:butt;stroke-linejoin:miter;stroke-miterlimit:10"
         inkscape:connector-curvature="0" />
      <path
         id="path3785"
         d="m 1247.1041,689.55141 c 5.0301,0.0896 11.5753,-1.05574 14.835,3.86676 3.2814,5.6691 1.4716,14.69904 -4.9941,17.33355 -3.0995,1.2289 -6.5154,0.93779 -9.7495,1.14855 -0.1833,-7.45019 -0.066,-14.9009 -0.091,-22.34886 z m 0,0"
         style="opacity:1;fill:none;stroke:#ffffff;stroke-width:0.125;stroke-linecap:butt;stroke-linejoin:miter;stroke-miterlimit:10"
         inkscape:connector-curvature="0" />
      <path
         id="path3789"
         d="m -75.232105,718.64751 c 3.19218,-8.44284 5.97182,-17.02872 9.04778,-25.50924 2.2925,8.63195 5.41983,17.0039 8.12909,25.50911 -5.72863,-0.0385 -11.45405,-0.0343 -17.17687,1.3e-4 z m 0,0"
         style="opacity:1;fill:none;stroke:#ffffff;stroke-width:0.125;stroke-linecap:butt;stroke-linejoin:miter;stroke-miterlimit:10"
         inkscape:connector-curvature="0" />
    </g>
  </g>
</svg>
