<?xml version="1.0" encoding="utf-8"?>
<!-- Generator: Adobe Illustrator 22.1.0, SVG Export Plug-In . SVG Version: 6.00 Build 0)  -->
<svg version="1.1" id="Layer_1" xmlns="http://www.w3.org/2000/svg" xmlns:xlink="http://www.w3.org/1999/xlink" x="0px" y="0px"
	 viewBox="0 0 705.9 41.2" style="enable-background:new 0 0 705.9 41.2;" xml:space="preserve">
<style type="text/css">
	.st0{fill:#821019;}
</style>
<g>
	<g>
		<path class="st0" d="M0,20.8C0,9.6,8.6,0.1,22.2,0.1c5.2,0,10.1,1.1,12.1,1.7v7.9h-0.4c-2.7-3.4-7.3-6.8-12.5-6.8
			C13.7,2.8,7.9,10.3,7.9,20c0,11.1,6.8,18.3,14.4,18.3c6.5,0,10.7-4.9,12.4-7.2H35v7.4c-1.9,0.9-6.7,2.6-13,2.6
			C9.6,41.1,0,33.2,0,20.8z"/>
		<path class="st0" d="M63.2,0c11.2,0,20.5,8,20.5,20.1c0,12.3-9.5,21.1-20.3,21.1c-10.9,0-20.5-8-20.5-20C43,8.9,52.3,0,63.2,0z
			 M63.4,38.3c6.6,0,12.5-6.8,12.5-17.7c0-11-6.1-17.9-12.7-17.9c-6.5,0-12.4,7-12.4,17.9C50.8,31.5,56.8,38.3,63.4,38.3z"/>
		<path class="st0" d="M121.5,29.5h0.4v10.9H91.6v-0.4l4.1-3.2V4.3l-4.1-3.2V0.7h15.3v0.4l-4.1,3.2v33.4h12.5L121.5,29.5z"/>
		<path class="st0" d="M151.3,41.1c-12.9,0-22-8.5-22-20.3c0-11,8.5-20.7,22.2-20.7c5.6,0,10.9,1.2,12.8,1.7v7.7h-0.4
			c-2.9-3.4-7.3-6.7-13.1-6.7c-8,0-13.8,7.2-13.8,17.2c0,10.5,6.5,18.3,14.9,18.3c2.9,0,5.4-0.8,6.8-1.8V23.4l-4.9-3.2v-0.4H169v0.4
			l-3.2,3.2v14.5C162.7,38.7,158.2,41.1,151.3,41.1z"/>
		<path class="st0" d="M185,40.1v0.4h-11v-0.4l3.5-3.2l14.4-36.8h1.3l15.6,36.8l3.5,3.2v0.4h-15.1v-0.4l4.1-3.2l-4.7-11.2H185
			l-4.3,11L185,40.1z M185.9,23.1h9.5l-5-11.8L185.9,23.1z"/>
		<path class="st0" d="M249.7,0.7v8.7h-0.4l-5-6h-8.8v33.4l4.4,3.3v0.4h-16v-0.4l4.4-3.3V3.4h-8.9l-4.9,6H214V0.7H249.7z"/>
		<path class="st0" d="M257.8,40.4v-0.4l4.1-3.2V4.3l-4.1-3.2V0.7H285v7.9h-0.4l-4.4-5.3H269v14.8h11.6l3.1-4.2h0.3v11h-0.3
			l-3.1-4.1H269v17h12.4l4.6-6.6h0.4v9.3H257.8z"/>
	</g>
	<g>
		<path class="st0" d="M353.5,26.3c0,7.3-5.3,14.8-15.8,14.8c-11,0-17.3-5.8-17.3-14.6V4.3l-4.1-3.2V0.7h15.7v0.4l-4.4,3.2v21.8
			c0,6.8,4.1,10.7,11.6,10.7c6.9,0,11-4.7,11-10.8V4.3l-4.4-3.2V0.7h11.8v0.4l-4,3.2V26.3z"/>
		<path class="st0" d="M365.1,40.4v-0.4l4.3-3.4V5.8c-1.7-1.9-4.1-4.2-4.7-4.7V0.7h9.8l25.5,28.8v-25l-5-3.4V0.7h12.7v0.4l-4.4,3.4
			v35.9h-2.8l-27.8-31v27.2l5.2,3.4v0.4H365.1z"/>
		<path class="st0" d="M417.5,40.4v-0.4l4.1-3.2V4.3l-4.1-3.2V0.7h15.3v0.4l-4.1,3.2v32.5l4.1,3.2v0.4H417.5z"/>
		<path class="st0" d="M467.4,1.1V0.7h11.1v0.4l-3.5,3.2L460.9,41h-1.3L444.1,4.3l-3.5-3.2V0.7h15.5v0.4L452,4.3l10.2,25.2l9.5-25.1
			L467.4,1.1z"/>
		<path class="st0" d="M485.1,40.4v-0.4l4.1-3.2V4.3l-4.1-3.2V0.7h27.2v7.9h-0.4l-4.4-5.3h-11.2v14.8h11.6l3.1-4.2h0.3v11H511
			l-3.1-4.1h-11.6v17h12.4l4.6-6.6h0.4v9.3H485.1z"/>
		<path class="st0" d="M525.5,40.4v-0.4l4.1-3.2V4.3l-4.1-3.2V0.7h15.8c8,0,13.2,3,13.2,8.8c0,4.9-3.8,8.2-7,9.8l6.8,11.6
			c3.6,6.2,6.9,8.3,8.2,9.2v0.4c-0.5,0.1-2.2,0.4-3.8,0.4c-5,0-7.7-1.7-10.6-6.8l-7.2-13.1h-4.2v15.9l4.6,3.2v0.4H525.5z M536.7,3.2
			v15.3h5.5c2.8,0,5.5-3.5,5.5-7.6c0-5.6-3.7-7.7-7.7-7.7H536.7z"/>
		<path class="st0" d="M590.4,1.1v7.2h-0.4c-2.3-3.1-4.9-5.6-8.3-5.6c-2.8,0-5.2,1.9-5.2,4.9c0,3.8,2.5,5.6,7.1,9
			c5.7,4.2,9.5,7.3,9.5,13.1c0,6.4-4.9,11.3-12.9,11.3c-5,0-8.6-1.3-10.6-2.3c-0.3-2.1-0.6-7.6-0.5-11.2h0.5
			c1.9,4.7,4.6,10.7,10.6,10.7c3.6,0,6.2-2.7,6.2-6.2c0-4.1-2.2-6.2-7.1-9.5c-6-4.2-9.1-7.6-9.1-12.5c0-6.2,5.1-9.8,12.1-9.8
			C586.6,0.1,589.5,0.8,590.4,1.1z"/>
		<path class="st0" d="M604.9,40.4v-0.4l4.1-3.2V4.3l-4.1-3.2V0.7h15.3v0.4l-4.1,3.2v32.5l4.1,3.2v0.4H604.9z"/>
		<path class="st0" d="M664.5,0.7v8.7H664l-5-6h-8.8v33.4l4.4,3.3v0.4h-16v-0.4l4.4-3.3V3.4h-8.9l-4.9,6h-0.4V0.7H664.5z"/>
		<path class="st0" d="M694.8,1.1V0.7h11v0.4l-3.5,3.2l-10.4,16.3v16.2l4.1,3.3v0.4h-15.3v-0.4l4.1-3.3V21.7L673.4,4.3l-3.5-3.2V0.7
			h15.7v0.4l-4.1,3.2l8.8,13.7l8.7-13.6L694.8,1.1z"/>
	</g>
</g>
</svg>
