<?xml version="1.0" encoding="utf-8"?>
<!-- Generator: Adobe Illustrator 22.0.0, SVG Export Plug-In . SVG Version: 6.00 Build 0)  -->
<svg version="1.1"
	 id="svg4298" inkscape:version="0.91 r13725" sodipodi:docname="seal.svg" xmlns:cc="http://creativecommons.org/ns#" xmlns:dc="http://purl.org/dc/elements/1.1/" xmlns:inkscape="http://www.inkscape.org/namespaces/inkscape" xmlns:rdf="http://www.w3.org/1999/02/22-rdf-syntax-ns#" xmlns:sodipodi="http://sodipodi.sourceforge.net/DTD/sodipodi-0.dtd" xmlns:svg="http://www.w3.org/2000/svg"
	 xmlns="http://www.w3.org/2000/svg" xmlns:xlink="http://www.w3.org/1999/xlink" x="0px" y="0px" viewBox="0 0 224 52.8"
	 style="enable-background:new 0 0 224 52.8;" xml:space="preserve">
<style type="text/css">
	.st0{clip-path:url(#SVGID_2_);}
	.st1{clip-path:url(#SVGID_4_);fill:#002F87;}
</style>
<sodipodi:namedview  bordercolor="#666666" borderopacity="1.0" fit-margin-bottom="0" fit-margin-left="0" fit-margin-right="0" fit-margin-top="0" id="base" inkscape:current-layer="layer1" inkscape:cx="181.52534" inkscape:cy="97.184082" inkscape:document-units="px" inkscape:pageopacity="0.0" inkscape:pageshadow="2" inkscape:window-height="700" inkscape:window-maximized="0" inkscape:window-width="1269" inkscape:window-x="224" inkscape:window-y="196" inkscape:zoom="1" pagecolor="#ffffff" showgrid="false">
	</sodipodi:namedview>
<g>
	<g>
		<g id="layer1" transform="translate(-814.08997,-293.62988)" inkscape:groupmode="layer" inkscape:label="Calque 1">
			<defs>
				<rect id="SVGID_1_" x="297" y="573" width="277" height="163.2"/>
			</defs>
			<clipPath id="SVGID_2_">
				<use xlink:href="#SVGID_1_"  style="overflow:visible;"/>
			</clipPath>
			<g id="g4902" transform="matrix(1.2500001,0,0,-1.2500001,390.81493,1162.1922)" class="st0">
				<g id="g4904">
					<g id="g4910">
						<defs>
							<polyline id="SVGID_3_" points="337.2,712.4 337.2,617.7 519.8,617.7 519.8,712.4 							"/>
						</defs>
						<clipPath id="SVGID_4_">
							<use xlink:href="#SVGID_3_"  style="overflow:visible;"/>
						</clipPath>
						<path id="path5142" inkscape:connector-curvature="0" class="st1" d="M366.1,674.4v16.1h-4.4v1.3h14.2v-1.3h-4.4v-35h4.4v-1.3
							h-14.2v1.3h4.4v17.3h-16.2v-17.3h4.4v-1.3H340v1.3h4.4v35H340v1.3h14.2v-1.3h-4.4v-16.1H366.1"/>
						<path id="path5144" inkscape:connector-curvature="0" class="st1" d="M397.1,658.1c-0.3-1-0.8-2.5-2-2.5
							c-1.2,0-1.2,0.9-1.2,2.6v13.4c0,2.3,0,5.5-7.7,5.5c-6.7,0-9-3.4-9-5.4c0-1.6,0.8-2.7,2.4-2.7c1.4,0,2.3,1,2.3,2.4
							c0,1.9-1.7,2.1-1.7,2.6c0,1.6,4,2,5.2,2c2,0,4.1-0.8,4.1-3.4v-5.3c-8.6,0-14-2.9-14.1-8.2c0-4.2,3-5.5,6.6-5.5
							c2.9,0,5.7,1.1,7.6,3.4c0.4-2.1,1.6-3.4,3.7-3.4c2.6,0,4.6,2,4.8,4.6H397.1L397.1,658.1z M389.5,660.8c0-2.4-0.8-3-1.2-3.4
							c-1.4-1.2-2.5-1.6-4.3-1.6c-2.6,0-4.3,1.7-4.3,4.4c0,5.2,6.2,5.8,9.9,5.9L389.5,660.8"/>
						<path id="path5146" inkscape:connector-curvature="0" class="st1" d="M435.2,655.5v-1.3h-10.4v1.3h3.2v16
							c0,2.6-1.4,3.9-3.2,3.9c-3.5,0-6.3-5-6.3-8.1v-11.8h3v-1.3h-10.4v1.3h3v16c0,2.6-1.4,3.9-3.2,3.9c-3.5,0-6.3-5-6.3-9.3v-10.6
							h3.2v-1.3h-10.4v1.3h2.8v19.7h-2.8v1.3h0.9c2.1,0,4.3,0.1,6.3,0.6v-5.3h0.1c2,3.2,3.5,5.3,7.6,5.3c3.2,0,5.7-1.9,6-5.3h0.1
							c1.8,3.1,4.1,5.3,7.8,5.3c2.1,0,6.1-0.8,6.1-6.6v-15L435.2,655.5"/>
						<path id="path5148" inkscape:connector-curvature="0" class="st1" d="M440.5,688.1c1.4,0,2.9-1.2,2.9-2.7c0-1.7-1.2-3-2.9-3
							s-2.7,1.4-2.7,3C437.8,686.9,439.1,688.1,440.5,688.1z M434.6,654.2v1.3h3.8v19.7h-3.8v1.3h1.9c2.1,0,4.3,0.1,6.3,0.6v-21.6
							h3.3v-1.3H434.6"/>
						<path id="path5150" inkscape:connector-curvature="0" class="st1" d="M445.8,654.2v1.3h4.3v36.2h-4.3v1.3h2.4
							c2.1,0,4.3,0.1,6.3,0.5v-38h4.3v-1.3L445.8,654.2"/>
						<path id="path5152" inkscape:connector-curvature="0" class="st1" d="M481.1,677.1c-5.9,0-10.9-5-10.9-11.8
							c0-6.8,5-11.8,10.9-11.8s10.9,5,10.9,11.8C491.9,672.1,487,677.1,481.1,677.1z M481.1,676c5.7,0,5.7-6,5.7-10.6
							c0-4.7-0.1-10.7-5.7-10.7c-5.7,0-5.7,6-5.7,10.7C475.3,670,475.4,676,481.1,676"/>
						<path id="path5154" inkscape:connector-curvature="0" class="st1" d="M494.6,675.2h-3.1v1.3h1.2c1.1,0,2.1,0,3.2,0.1
							c1.1,0.1,2.1,0.2,3.2,0.5v-6h0.1c1.6,3.5,3.8,6,7.9,6c2,0,6.7-0.5,6.7-5.6v-15.9h3v-1.3h-10.4v1.3h2.9v15.2
							c0,4.1-1.3,4.7-3.5,4.7c-3.8,0-6.8-5.2-6.8-9.5v-10.5h3v-1.3h-10.5v1.3h3.1V675.2"/>
						<path id="path5156" inkscape:connector-curvature="0" class="st1" d="M457.2,676.6h3.3v6.9c1.5,0,2.9,0,4.3,0.2v-7.1h5v-1.3
							h-5v-17.2c0-1,0-2.5,2.1-2.5c1.5,0,2.3,1,3.2,2.1l0.9-0.6c-1.1-2.1-3.8-3.4-6.1-3.4c-4.1,0-4.5,2.2-4.5,4.9v16.8h-3.2V676.6"
							/>
					</g>
				</g>
			</g>
		</g>
	</g>
</g>
</svg>
