<?xml version="1.0" encoding="UTF-8"?>
<svg width="124px" height="200px" viewBox="0 0 124 200" version="1.1" xmlns="http://www.w3.org/2000/svg" xmlns:xlink="http://www.w3.org/1999/xlink">
    <!-- Generator: Sketch 58 (84663) - https://sketch.com -->
    <title>stevens</title>
    <desc>Created with Sketch.</desc>
    <g id="Logos_BGD" stroke="none" stroke-width="1" fill="none" fill-rule="evenodd">
        <g id="stevens" transform="translate(-38.000000, 0.000000)">
            <g id="stevens_BGD">
                <g id="stevens" transform="translate(38.000000, 0.000000)">
                    <polyline id="Fill-1" fill="#FFFFFE" points="91.9889688 0.210551559 90.1980815 0.211510791 33.123741 0.241247002 31.3410072 0.242206235 0 31.4858513 0.0901678657 92.1314149 31.2863309 123.335731 33.0743405 123.335731 66.1496403 123.33717 66.1496403 147.808153 57.1026379 147.808153 57.1151079 133.654676 52.7947242 133.654676 4.40239808 133.653717 0.0858513189 133.653717 0.0858513189 168.316547 31.2776978 199.520384 91.9693046 199.520384 123.18753 168.317506 123.17458 104.614388 123.17458 102.827338 91.9736211 71.6263789 90.1856115 71.6263789 57.111271 71.6239808 57.111271 51.9467626 66.1616307 51.9467626 66.1616307 66.1021583 70.4786571 66.1021583 118.870983 66.098801 123.18705 66.0983213 123.18705 31.4407674 91.9889688 0.210551559"></polyline>
                    <path d="M91.9889688,0.210551559 L90.1980815,0.210551559 L33.123741,0.241247002 L31.3410072,0.242206235 L0,31.4858513 L0.0901678657,92.1314149 L31.2863309,123.335731 L33.0743405,123.335731 L66.1496403,123.33717 L66.1496403,147.808153 L57.1026379,147.808153 L57.1151079,133.654676 L52.7947242,133.654676 L4.40239808,133.653717 L0.0858513189,133.653717 L0.0858513189,168.316547 L31.2776978,199.520384 L91.9693046,199.520384 L123.18753,168.317506 L123.17458,104.614388 L123.17458,102.827338 L91.9736211,71.6263789 L90.1856115,71.6263789 L57.111271,71.6239808 L57.111271,51.9467626 L66.1616307,51.9467626 L66.1616307,66.1021583 L70.4786571,66.1021583 L118.870983,66.098801 L123.18753,66.0983213 L123.18753,31.4407674 L91.9889688,0.210551559 Z M90.2004796,4.52805755 L118.870504,33.2273381 L118.870504,61.7822542 L70.4781775,61.7856115 L70.4781775,47.6302158 L52.7947242,47.6302158 L52.7947242,75.9405276 L90.1856115,75.9429257 L118.858034,104.615348 L118.870504,166.529017 L90.1817746,195.203837 L33.0661871,195.203837 L4.40239808,166.529017 L4.40239808,137.970264 L52.7947242,137.971223 L52.7817746,152.1247 L70.4661871,152.1247 L70.4661871,119.020624 L33.0748201,119.019185 L4.40383693,90.3410072 L4.31942446,33.2748201 L33.1261391,4.55779376 L90.2004796,4.52805755 L90.2004796,4.52805755 Z" id="Fill-2" fill="#949594"></path>
                    <polyline id="Fill-3" fill="#9D1535" points="88.41247 8.84556355 114.553957 35.0139089 114.553957 57.4657074 74.7947242 57.4685851 74.7947242 43.3136691 48.4781775 43.3136691 48.4781775 80.2565947 52.7942446 80.2570743 88.3976019 80.2589928 114.541966 106.403837 114.553957 164.741007 88.3947242 190.88729 34.8541966 190.88729 8.71894484 164.741966 8.71894484 142.286811 48.4743405 142.28777 48.4618705 156.441247 74.7827338 156.441247 74.7827338 114.704556 70.4661871 114.704077 34.8628297 114.702638 8.717506 88.5505995 8.6383693 35.0642686 34.911271 8.87338129 88.41247 8.84556355"></polyline>
                </g>
            </g>
        </g>
    </g>
</svg>